<svg xmlns="http://www.w3.org/2000/svg" xmlns:xlink="http://www.w3.org/1999/xlink" contentStyleType="text/css" data-diagram-type="DESCRIPTION" height="586px" preserveAspectRatio="none" style="width:1724px;height:586px;background:#FFFFFF;" version="1.1" viewBox="0 0 1724 586" width="1724px" zoomAndPan="magnify"><?plantuml 1.2026.6?><defs/><g><!--cluster Reimbee ??????--><g class="cluster" data-qualified-name="Reimbee ......" data-source-line="11" id="ent0005"><rect fill="none" height="418.84" rx="2.5" ry="2.5" style="stroke:#181818;stroke-width:1;" width="615" x="588.07" y="121.77"/><text fill="#000000" font-family="Arial" font-size="13" font-weight="700" lengthAdjust="spacing" textLength="146.2945" x="822.4227" y="135.8369">Reimbee &#26234;&#33021;&#25253;&#38144;&#31995;&#32479;</text></g><!--entity UC0--><g class="entity" data-qualified-name="Reimbee .......UC0" data-source-line="13" id="ent0006"><ellipse cx="772.0696" cy="179.9505" fill="#F1F1F1" rx="39.7696" ry="13.7005" style="stroke:#181818;stroke-width:0.5;"/><text fill="#000000" font-family="Arial" font-size="13" lengthAdjust="spacing" textLength="52.0001" x="746.0696" y="184.0169">&#30331;&#24405;&#27880;&#20876;</text></g><!--entity UC1--><g class="entity" data-qualified-name="Reimbee .......UC1" data-source-line="15" id="ent0007"><ellipse cx="1146.0728" cy="179.9466" fill="#F1F1F1" rx="41.0228" ry="24.1766" style="stroke:#181818;stroke-width:0.5;"/><text fill="#000000" font-family="Arial" font-size="13" lengthAdjust="spacing" textLength="52.0001" x="1120.0728" y="176.1275">&#19978;&#20256;&#31080;&#25454;</text><text fill="#000000" font-family="Arial" font-size="13" lengthAdjust="spacing" textLength="54.3423" x="1118.9017" y="191.2603">OCR&#35782;&#21035;</text></g><!--entity UC2--><g class="entity" data-qualified-name="Reimbee .......UC2" data-source-line="16" id="ent0008"><ellipse cx="896.072" cy="179.9505" fill="#F1F1F1" rx="48.962" ry="13.7005" style="stroke:#181818;stroke-width:0.5;"/><text fill="#000000" font-family="Arial" font-size="13" lengthAdjust="spacing" textLength="65.0001" x="863.572" y="184.0169">&#21019;&#24314;&#25253;&#38144;&#21333;</text></g><!--entity UC3--><g class="entity" data-qualified-name="Reimbee .......UC3" data-source-line="17" id="ent0009"><ellipse cx="1025.0746" cy="179.9532" fill="#F1F1F1" rx="45.4446" ry="22.7632" style="stroke:#181818;stroke-width:0.5;"/><text fill="#000000" font-family="Arial" font-size="13" lengthAdjust="spacing" textLength="65.0001" x="992.5746" y="178.8745">&#25552;&#20132;&#25253;&#38144;&#21333;</text><text fill="#000000" font-family="Arial" font-size="13" lengthAdjust="spacing" textLength="39" x="1005.5746" y="194.0073">&#38656;&#30830;&#35748;</text></g><!--entity UC4--><g class="entity" data-qualified-name="Reimbee .......UC4" data-source-line="18" id="ent0010"><ellipse cx="1023.072" cy="288.4505" fill="#F1F1F1" rx="48.962" ry="13.7005" style="stroke:#181818;stroke-width:0.5;"/><text fill="#000000" font-family="Arial" font-size="13" lengthAdjust="spacing" textLength="65.0001" x="990.572" y="292.5169">&#21462;&#28040;&#25253;&#38144;&#21333;</text></g><!--entity UC5--><g class="entity" data-qualified-name="Reimbee .......UC5" data-source-line="20" id="ent0011"><ellipse cx="1147.0696" cy="288.4505" fill="#F1F1F1" rx="39.7696" ry="13.7005" style="stroke:#181818;stroke-width:0.5;"/><text fill="#000000" font-family="Arial" font-size="13" lengthAdjust="spacing" textLength="52.0001" x="1121.0696" y="292.5169">&#26816;&#26597;&#39044;&#31639;</text></g><!--entity UC6--><g class="entity" data-qualified-name="Reimbee .......UC6" data-source-line="21" id="ent0012"><ellipse cx="745.0716" cy="288.4524" fill="#F1F1F1" rx="39.6516" ry="24.3324" style="stroke:#181818;stroke-width:0.5;"/><text fill="#000000" font-family="Arial" font-size="13" lengthAdjust="spacing" textLength="51.3272" x="719.408" y="284.8551">&#29983;&#25104;PDF</text><text fill="#000000" font-family="Arial" font-size="13" lengthAdjust="spacing" textLength="52.0001" x="719.0716" y="299.9879">&#21457;&#36865;&#37038;&#20214;</text></g><!--entity UC7--><g class="entity" data-qualified-name="Reimbee .......UC7" data-source-line="22" id="ent0013"><ellipse cx="879.0682" cy="288.4514" fill="#F1F1F1" rx="59.6482" ry="22.7614" style="stroke:#181818;stroke-width:0.5;"/><text fill="#000000" font-family="Arial" font-size="13" lengthAdjust="spacing" textLength="52.0001" x="853.0682" y="282.5272">&#26597;&#30475;&#25253;&#38144;</text><text fill="#000000" font-family="Arial" font-size="13" lengthAdjust="spacing" textLength="86.7599" x="835.6883" y="297.66">&#21015;&#34920;/&#35814;&#24773;/&#36827;&#24230;</text></g><!--entity UC8--><g class="entity" data-qualified-name="Reimbee .......UC8" data-source-line="23" id="ent0014"><ellipse cx="1082.0724" cy="396.2507" fill="#F1F1F1" rx="46.9424" ry="23.4607" style="stroke:#181818;stroke-width:0.5;"/><text fill="#000000" font-family="Arial" font-size="13" lengthAdjust="spacing" textLength="52.0001" x="1056.0724" y="391.3887">&#31080;&#25454;&#27719;&#24635;</text><text fill="#000000" font-family="Arial" font-size="13" lengthAdjust="spacing" textLength="65.0001" x="1049.5724" y="406.5215">&#26377;&#25928;&#26399;&#26657;&#39564;</text></g><!--entity UC9--><g class="entity" data-qualified-name="Reimbee .......UC9" data-source-line="25" id="ent0015"><ellipse cx="940.0682" cy="396.2514" fill="#F1F1F1" rx="59.6482" ry="22.7614" style="stroke:#181818;stroke-width:0.5;"/><text fill="#000000" font-family="Arial" font-size="13" lengthAdjust="spacing" textLength="52.0001" x="914.0682" y="390.3272">&#23457;&#25209;&#22788;&#29702;</text><text fill="#000000" font-family="Arial" font-size="13" lengthAdjust="spacing" textLength="86.7599" x="896.6883" y="405.46">&#26597;&#30475;/&#36890;&#36807;/&#39539;&#22238;</text></g><!--entity UC10--><g class="entity" data-qualified-name="Reimbee .......UC10" data-source-line="26" id="ent0016"><ellipse cx="652.0696" cy="396.2505" fill="#F1F1F1" rx="39.7696" ry="13.7005" style="stroke:#181818;stroke-width:0.5;"/><text fill="#000000" font-family="Arial" font-size="13" lengthAdjust="spacing" textLength="52.0001" x="626.0696" y="400.3169">&#26597;&#30475;&#21592;&#24037;</text></g><!--entity UC11--><g class="entity" data-qualified-name="Reimbee .......UC11" data-source-line="27" id="ent0017"><ellipse cx="786.0682" cy="396.2514" fill="#F1F1F1" rx="59.6482" ry="22.7614" style="stroke:#181818;stroke-width:0.5;"/><text fill="#000000" font-family="Arial" font-size="13" lengthAdjust="spacing" textLength="52.0001" x="760.0682" y="390.3272">&#32452;&#32455;&#20449;&#24687;</text><text fill="#000000" font-family="Arial" font-size="13" lengthAdjust="spacing" textLength="86.7599" x="742.6883" y="405.46">&#37096;&#38376;/&#39044;&#31639;/&#30475;&#26495;</text></g><!--entity UC12--><g class="entity" data-qualified-name="Reimbee .......UC12" data-source-line="29" id="ent0018"><ellipse cx="828.0728" cy="502.1647" fill="#F1F1F1" rx="77.0628" ry="22.3847" style="stroke:#181818;stroke-width:0.5;"/><text fill="#000000" font-family="Arial" font-size="13" lengthAdjust="spacing" textLength="52.0001" x="802.0728" y="495.6465">&#31995;&#32479;&#31649;&#29702;</text><text fill="#000000" font-family="Arial" font-size="13" lengthAdjust="spacing" textLength="115.6353" x="770.2551" y="510.7794">&#37096;&#38376;&#21592;&#24037;&#39044;&#31639;CRUD</text></g><!--entity UC13--><g class="entity" data-qualified-name="Reimbee .......UC13" data-source-line="30" id="ent0019"><ellipse cx="1114.0734" cy="502.161" fill="#F1F1F1" rx="72.6534" ry="22.451" style="stroke:#181818;stroke-width:0.5;"/><text fill="#000000" font-family="Arial" font-size="13" lengthAdjust="spacing" textLength="52.0001" x="1088.0734" y="495.7487">&#21512;&#35268;&#26597;&#35810;</text><text fill="#000000" font-family="Arial" font-size="13" lengthAdjust="spacing" textLength="108.38" x="1059.8834" y="510.8815">&#25919;&#31574;&#26816;&#32034;/&#21512;&#35268;&#26816;&#26597;</text></g><!--entity UC14--><g class="entity" data-qualified-name="Reimbee .......UC14" data-source-line="31" id="ent0020"><ellipse cx="660.0745" cy="502.1566" fill="#F1F1F1" rx="55.9045" ry="22.4366" style="stroke:#181818;stroke-width:0.5;"/><text fill="#000000" font-family="Arial" font-size="13" lengthAdjust="spacing" textLength="39" x="640.5744" y="495.7213">&#30693;&#35782;&#24211;</text><text fill="#000000" font-family="Arial" font-size="13" lengthAdjust="spacing" textLength="82.38" x="618.8845" y="510.8541">&#25991;&#26723;&#31649;&#29702;/&#32034;&#24341;</text></g><!--entity UC15--><g class="entity" data-qualified-name="Reimbee .......UC15" data-source-line="32" id="ent0021"><ellipse cx="973.0662" cy="502.1605" fill="#F1F1F1" rx="33.3062" ry="13.7005" style="stroke:#181818;stroke-width:0.5;"/><text fill="#000000" font-family="Arial" font-size="13" lengthAdjust="spacing" textLength="42.8594" x="951.6365" y="506.2269">AI &#23545;&#35805;</text></g><!--entity Emp--><g class="entity" data-qualified-name="Emp" data-source-line="5" id="ent0001"><ellipse cx="1275.0721" cy="14" fill="#F1F1F1" rx="8" ry="8" style="stroke:#181818;stroke-width:0.5;"/><path d="M1275.0721,22 L1275.0721,49 M1262.0721,30 L1288.0721,30 M1275.0721,49 L1262.0721,64 M1275.0721,49 L1288.0721,64" fill="none" style="stroke:#181818;stroke-width:0.5;"/><text fill="#000000" font-family="Arial" font-size="13" lengthAdjust="spacing" textLength="26" x="1242.88" y="77.5669">&#21592;&#24037;</text><text fill="#000000" font-family="Arial" font-size="13" lengthAdjust="spacing" textLength="64.3843" x="1242.88" y="92.6997">Employee</text></g><!--entity App--><g class="entity" data-qualified-name="App" data-source-line="6" id="ent0002"><ellipse cx="395.0657" cy="14" fill="#F1F1F1" rx="8" ry="8" style="stroke:#181818;stroke-width:0.5;"/><path d="M395.0657,22 L395.0657,49 M382.0657,30 L408.0657,30 M395.0657,49 L382.0657,64 M395.0657,49 L408.0657,64" fill="none" style="stroke:#181818;stroke-width:0.5;"/><text fill="#000000" font-family="Arial" font-size="13" lengthAdjust="spacing" textLength="39" x="365.2" y="77.5669">&#23457;&#25209;&#20154;</text><text fill="#000000" font-family="Arial" font-size="13" lengthAdjust="spacing" textLength="59.7314" x="365.2" y="92.6997">Approver</text></g><!--entity Adm--><g class="entity" data-qualified-name="Adm" data-source-line="7" id="ent0003"><ellipse cx="111.0698" cy="14" fill="#F1F1F1" rx="8" ry="8" style="stroke:#181818;stroke-width:0.5;"/><path d="M111.0698,22 L111.0698,49 M98.0698,30 L124.0698,30 M111.0698,49 L98.0698,64 M111.0698,49 L124.0698,64" fill="none" style="stroke:#181818;stroke-width:0.5;"/><text fill="#000000" font-family="Arial" font-size="13" lengthAdjust="spacing" textLength="39" x="90.24" y="77.5669">&#31649;&#29702;&#21592;</text><text fill="#000000" font-family="Arial" font-size="13" lengthAdjust="spacing" textLength="41.6597" x="90.24" y="92.6997">Admin</text></g><!--link Adm to App--><g class="link" data-entity-1="ent0003" data-entity-2="ent0002" data-link-type="extension" data-source-line="9" id="lnk4"><path d="M132.15,50.64 C209.69,50.64 269.23,50.64 346.77,50.64" fill="none" id="Adm-to-App" style="stroke:#181818;stroke-width:1;"/><polygon fill="none" points="364.77,50.64,346.77,44.64,346.77,56.64,364.77,50.64" style="stroke:#181818;stroke-width:1;stroke-linejoin:miter;stroke-miterlimit:10;"/></g><!--link UC0 to UC1--><!--link UC1 to UC2--><!--link UC2 to UC3--><!--link UC4 to UC5--><!--link UC5 to UC6--><!--link UC6 to UC7--><!--link UC8 to UC9--><!--link UC9 to UC10--><!--link UC10 to UC11--><!--link UC12 to UC13--><!--link UC13 to UC14--><!--link UC14 to UC15--><!--link UC0 to UC4--><!--link UC1 to UC5--><!--link UC2 to UC6--><!--link UC3 to UC7--><!--link UC4 to UC8--><!--link UC5 to UC9--><!--link UC6 to UC10--><!--link UC7 to UC11--><!--link UC8 to UC12--><!--link UC9 to UC13--><!--link UC10 to UC14--><!--link UC11 to UC15--><!--link Emp to UC0--><g class="link" data-entity-1="ent0001" data-entity-2="ent0006" data-link-type="dependency" data-source-line="67" id="lnk46"><path d="M1242.52,53.28 C1152.46,58.28 901.86,75.37 830.07,113.77 C807.23,125.99 791.679,146.7256 782.109,161.9656" fill="none" id="Emp-to-UC0" style="stroke:#181818;stroke-width:1;"/><polygon fill="#181818" points="779.45,166.2,787.6237,160.7053,782.109,161.9656,780.8487,156.451,779.45,166.2" style="stroke:#181818;stroke-width:1;stroke-linejoin:miter;stroke-miterlimit:10;"/></g><!--link Emp to UC1--><g class="link" data-entity-1="ent0001" data-entity-2="ent0007" data-link-type="dependency" data-source-line="68" id="lnk47"><path d="M1242.52,83.76 C1218.63,107.33 1190.489,135.1081 1170.069,155.2581" fill="none" id="Emp-to-UC1" style="stroke:#181818;stroke-width:1;"/><polygon fill="#181818" points="1166.51,158.77,1175.7257,155.2957,1170.069,155.2581,1170.1066,149.6013,1166.51,158.77" style="stroke:#181818;stroke-width:1;stroke-linejoin:miter;stroke-miterlimit:10;"/></g><!--link Emp to UC2--><g class="link" data-entity-1="ent0001" data-entity-2="ent0008" data-link-type="dependency" data-source-line="69" id="lnk48"><path d="M1242.39,52.05 C1183.1,54.06 1055.31,64.33 962.07,113.77 C937.88,126.59 919.7467,147.1578 908.2567,162.1878" fill="none" id="Emp-to-UC2" style="stroke:#181818;stroke-width:1;"/><polygon fill="#181818" points="905.22,166.16,913.8638,161.4393,908.2567,162.1878,907.5082,156.5806,905.22,166.16" style="stroke:#181818;stroke-width:1;stroke-linejoin:miter;stroke-miterlimit:10;"/></g><!--link Emp to UC3--><g class="link" data-entity-1="ent0001" data-entity-2="ent0009" data-link-type="dependency" data-source-line="70" id="lnk49"><path d="M1242.39,57.37 C1203.14,65.35 1136.43,82.49 1087.07,113.77 C1068.6,125.47 1054.9188,139.9699 1043.4788,154.2299" fill="none" id="Emp-to-UC3" style="stroke:#181818;stroke-width:1;"/><polygon fill="#181818" points="1040.35,158.13,1049.1019,153.6129,1043.4788,154.2299,1042.8618,148.6068,1040.35,158.13" style="stroke:#181818;stroke-width:1;stroke-linejoin:miter;stroke-miterlimit:10;"/></g><!--link Emp to UC4--><g class="link" data-entity-1="ent0001" data-entity-2="ent0010" data-link-type="dependency" data-source-line="71" id="lnk50"><path d="M1307.62,75.26 C1319.2,85.62 1330.89,98.84 1337.07,113.77 C1352.42,150.88 1361.89,172.55 1337.07,204.12 C1267.25,292.93 1198.43,232.17 1090.07,264.12 C1077.31,267.88 1068.0981,270.9366 1056.2681,275.1666" fill="none" id="Emp-to-UC4" style="stroke:#181818;stroke-width:1;"/><polygon fill="#181818" points="1051.56,276.85,1061.3813,277.5863,1056.2681,275.1666,1058.6878,270.0533,1051.56,276.85" style="stroke:#181818;stroke-width:1;stroke-linejoin:miter;stroke-miterlimit:10;"/></g><!--link Emp to UC5--><g class="link" data-entity-1="ent0001" data-entity-2="ent0011" data-link-type="dependency" data-source-line="72" id="lnk51"><path d="M1307.61,56.72 C1339.4,63.6 1386.1,79.26 1408.07,113.77 C1429.63,147.64 1431.75,171.69 1408.07,204.12 C1357,274.03 1251.6285,286.5383 1192.0885,287.9883" fill="none" id="Emp-to-UC5" style="stroke:#181818;stroke-width:1;"/><polygon fill="#181818" points="1187.09,288.11,1196.1847,291.8897,1192.0885,287.9883,1195.9899,283.8921,1187.09,288.11" style="stroke:#181818;stroke-width:1;stroke-linejoin:miter;stroke-miterlimit:10;"/></g><!--link Emp to UC6--><g class="link" data-entity-1="ent0001" data-entity-2="ent0012" data-link-type="dependency" data-source-line="73" id="lnk52"><path d="M1266.7,95.98 C1257.67,131 1239.66,178.15 1205.07,204.12 C1060.27,312.86 976.68,216.14 802.07,264.12 C793.51,266.47 789.1415,267.866 780.8815,271.226" fill="none" id="Emp-to-UC6" style="stroke:#181818;stroke-width:1;"/><polygon fill="#181818" points="776.25,273.11,786.0939,273.424,780.8815,271.226,783.0795,266.0136,776.25,273.11" style="stroke:#181818;stroke-width:1;stroke-linejoin:miter;stroke-miterlimit:10;"/></g><!--link Emp to UC7--><g class="link" data-entity-1="ent0001" data-entity-2="ent0013" data-link-type="dependency" data-source-line="74" id="lnk53"><path d="M1285.69,96.11 C1290.91,129.8 1291.48,175.09 1266.07,204.12 C1173.93,309.39 1092.92,230.7 957.07,264.12 C946.36,266.76 939.7344,268.5309 929.0244,271.7009" fill="none" id="Emp-to-UC7" style="stroke:#181818;stroke-width:1;"/><polygon fill="#181818" points="924.23,273.12,933.9952,274.4012,929.0244,271.7009,931.7247,266.7302,924.23,273.12" style="stroke:#181818;stroke-width:1;stroke-linejoin:miter;stroke-miterlimit:10;"/></g><!--link Emp to UC8--><g class="link" data-entity-1="ent0001" data-entity-2="ent0014" data-link-type="dependency" data-source-line="75" id="lnk54"><path d="M1307.75,53.24 C1347.13,57.12 1411.79,70.2 1442.07,113.77 C1464.98,146.75 1462.76,169.71 1442.07,204.12 C1372.24,320.25 1210.3136,368.5172 1130.6936,386.0072" fill="none" id="Emp-to-UC8" style="stroke:#181818;stroke-width:1;"/><polygon fill="#181818" points="1125.81,387.08,1135.4586,389.0559,1130.6936,386.0072,1133.7422,381.2422,1125.81,387.08" style="stroke:#181818;stroke-width:1;stroke-linejoin:miter;stroke-miterlimit:10;"/></g><!--link Emp to UC11--><g class="link" data-entity-1="ent0001" data-entity-2="ent0017" data-link-type="dependency" data-source-line="76" id="lnk55"><path d="M1242.74,53 C1129.25,58.08 753.83,77.53 715.07,113.77 C649.87,174.73 650.4,231.86 688.07,312.79 C701.2,341.01 725.0351,360.3779 747.7851,374.5379" fill="none" id="Emp-to-UC11" style="stroke:#181818;stroke-width:1;"/><polygon fill="#181818" points="752.03,377.18,746.5028,369.0283,747.7851,374.5379,742.2755,375.8201,752.03,377.18" style="stroke:#181818;stroke-width:1;stroke-linejoin:miter;stroke-miterlimit:10;"/></g><!--link Emp to UC13--><g class="link" data-entity-1="ent0001" data-entity-2="ent0019" data-link-type="dependency" data-source-line="77" id="lnk56"><path d="M1307.73,52.39 C1386.09,54.97 1581.23,66.14 1621.07,113.77 C1708.31,218.07 1709.26,316.22 1621.07,419.71 C1566.14,484.17 1318.4688,497.7014 1191.8388,500.4514" fill="none" id="Emp-to-UC13" style="stroke:#181818;stroke-width:1;"/><polygon fill="#181818" points="1186.84,500.56,1195.9247,504.3637,1191.8388,500.4514,1195.751,496.3655,1186.84,500.56" style="stroke:#181818;stroke-width:1;stroke-linejoin:miter;stroke-miterlimit:10;"/></g><!--link Emp to UC15--><g class="link" data-entity-1="ent0001" data-entity-2="ent0021" data-link-type="dependency" data-source-line="78" id="lnk57"><path d="M1307.38,50.82 C1353.53,51.64 1437.04,60.86 1476.07,113.77 C1499.9,146.09 1489.89,166.42 1476.07,204.12 C1454.29,263.54 1434.48,274.54 1384.07,312.79 C1349.99,338.64 1080.5049,455.0885 999.8849,489.6785" fill="none" id="Emp-to-UC15" style="stroke:#181818;stroke-width:1;"/><polygon fill="#181818" points="995.29,491.65,1005.138,491.7773,999.8849,489.6785,1001.9837,484.4254,995.29,491.65" style="stroke:#181818;stroke-width:1;stroke-linejoin:miter;stroke-miterlimit:10;"/></g><!--link App to UC0--><g class="link" data-entity-1="ent0002" data-entity-2="ent0006" data-link-type="dependency" data-source-line="80" id="lnk58"><path d="M425.12,52.1 C482.74,54.16 611.33,64.41 705.07,113.77 C729.48,126.62 747.9341,147.208 759.6541,162.228" fill="none" id="App-to-UC0" style="stroke:#181818;stroke-width:1;"/><polygon fill="#181818" points="762.73,166.17,760.347,156.6138,759.6541,162.228,754.0399,161.5352,762.73,166.17" style="stroke:#181818;stroke-width:1;stroke-linejoin:miter;stroke-miterlimit:10;"/></g><!--link App to UC7--><g class="link" data-entity-1="ent0002" data-entity-2="ent0013" data-link-type="dependency" data-source-line="81" id="lnk59"><path d="M425.16,53.88 C472.71,58.59 566.7,72.73 634.07,113.77 C680.13,141.83 672.3,171.27 715.07,204.12 C753.19,233.4 798.5571,255.1309 833.2771,269.6509" fill="none" id="App-to-UC7" style="stroke:#181818;stroke-width:1;"/><polygon fill="#181818" points="837.89,271.58,831.1301,264.4173,833.2771,269.6509,828.0436,271.7979,837.89,271.58" style="stroke:#181818;stroke-width:1;stroke-linejoin:miter;stroke-miterlimit:10;"/></g><!--link App to UC8--><g class="link" data-entity-1="ent0002" data-entity-2="ent0014" data-link-type="dependency" data-source-line="82" id="lnk60"><path d="M425.22,74.02 C440.43,85.57 459.01,100.08 475.07,113.77 C573.67,197.82 572.32,254.58 688.07,312.79 C820.86,379.56 873.3,335.07 1017.07,372.79 C1026.31,375.21 1031.3892,376.6916 1040.5092,379.8116" fill="none" id="App-to-UC8" style="stroke:#181818;stroke-width:1;"/><polygon fill="#181818" points="1045.24,381.43,1038.0193,374.7322,1040.5092,379.8116,1035.4298,382.3015,1045.24,381.43" style="stroke:#181818;stroke-width:1;stroke-linejoin:miter;stroke-miterlimit:10;"/></g><!--link App to UC9--><g class="link" data-entity-1="ent0002" data-entity-2="ent0015" data-link-type="dependency" data-source-line="83" id="lnk61"><path d="M414.27,96.2 C442.2,155.45 499.85,258.94 582.07,312.79 C688.9,382.76 739.24,341.55 863.07,372.79 C873.19,375.34 879.1952,376.9465 889.4052,379.8865" fill="none" id="App-to-UC9" style="stroke:#181818;stroke-width:1;"/><polygon fill="#181818" points="894.21,381.27,886.6683,374.9358,889.4052,379.8865,884.4546,382.6234,894.21,381.27" style="stroke:#181818;stroke-width:1;stroke-linejoin:miter;stroke-miterlimit:10;"/></g><!--link App to UC10--><g class="link" data-entity-1="ent0002" data-entity-2="ent0016" data-link-type="dependency" data-source-line="84" id="lnk62"><path d="M373.93,95.82 C350.43,152.08 321.63,249.55 369.07,312.79 C398.9,352.55 541.458,378.6804 610.878,389.3504" fill="none" id="App-to-UC10" style="stroke:#181818;stroke-width:1;"/><polygon fill="#181818" points="615.82,390.11,607.5321,384.7892,610.878,389.3504,606.3168,392.6963,615.82,390.11" style="stroke:#181818;stroke-width:1;stroke-linejoin:miter;stroke-miterlimit:10;"/></g><!--link App to UC11--><g class="link" data-entity-1="ent0002" data-entity-2="ent0017" data-link-type="dependency" data-source-line="85" id="lnk63"><path d="M389.06,96.01 C383.9,153.86 384.54,254.48 440.07,312.79 C524.54,401.49 590.43,342.29 709.07,372.79 C719.18,375.39 725.1765,377.0021 735.3865,379.9521" fill="none" id="App-to-UC11" style="stroke:#181818;stroke-width:1;"/><polygon fill="#181818" points="740.19,381.34,732.654,374.999,735.3865,379.9521,730.4334,382.6846,740.19,381.34" style="stroke:#181818;stroke-width:1;stroke-linejoin:miter;stroke-miterlimit:10;"/></g><!--link App to UC13--><g class="link" data-entity-1="ent0002" data-entity-2="ent0019" data-link-type="dependency" data-source-line="86" id="lnk64"><path d="M364.88,75.35 C353.94,85.82 342.86,99.08 337.07,113.77 C332.3,125.86 336.74,309.36 339.07,312.79 C515.17,571.98 716.15,421.62 1024.07,479.71 C1035.43,481.85 1042.6503,483.3561 1054.1603,486.0361" fill="none" id="App-to-UC13" style="stroke:#181818;stroke-width:1;"/><polygon fill="#181818" points="1059.03,487.17,1051.1716,481.2332,1054.1603,486.0361,1049.3574,489.0248,1059.03,487.17" style="stroke:#181818;stroke-width:1;stroke-linejoin:miter;stroke-miterlimit:10;"/></g><!--link App to UC15--><g class="link" data-entity-1="ent0002" data-entity-2="ent0021" data-link-type="dependency" data-source-line="87" id="lnk65"><path d="M364.93,52.92 C325.64,56.4 258.26,68.98 227.07,113.77 C149.37,225.35 135.14,319.52 227.07,419.71 C332.02,534.1 772.49,441.96 923.07,479.71 C933.33,482.28 939.6441,484.6064 948.6141,488.7664" fill="none" id="App-to-UC15" style="stroke:#181818;stroke-width:1;"/><polygon fill="#181818" points="953.15,490.87,946.6682,483.4547,948.6141,488.7664,943.3024,490.7122,953.15,490.87" style="stroke:#181818;stroke-width:1;stroke-linejoin:miter;stroke-miterlimit:10;"/></g><!--link Adm to UC12--><g class="link" data-entity-1="ent0003" data-entity-2="ent0018" data-link-type="dependency" data-source-line="89" id="lnk66"><path d="M104.4,96.06 C95.36,175.05 89.87,339.16 184.07,419.71 C277.35,499.46 612.02,459.49 733.07,479.71 C745.16,481.73 753.1367,483.2459 765.3667,485.9359" fill="none" id="Adm-to-UC12" style="stroke:#181818;stroke-width:1;"/><polygon fill="#181818" points="770.25,487.01,762.3194,481.17,765.3667,485.9359,760.6008,488.9833,770.25,487.01" style="stroke:#181818;stroke-width:1;stroke-linejoin:miter;stroke-miterlimit:10;"/></g><!--link Adm to UC14--><g class="link" data-entity-1="ent0003" data-entity-2="ent0020" data-link-type="dependency" data-source-line="90" id="lnk67"><path d="M89.96,96.2 C57.28,172.48 6,328.65 85.07,419.71 C152,496.79 467.8201,502.9213 599.0001,502.1013" fill="none" id="Adm-to-UC14" style="stroke:#181818;stroke-width:1;"/><polygon fill="#181818" points="604,502.07,594.9752,498.1263,599.0001,502.1013,595.0252,506.1262,604,502.07" style="stroke:#181818;stroke-width:1;stroke-linejoin:miter;stroke-miterlimit:10;"/></g><?plantuml-src RLNBRjf05DtxAqPqqHLo3EQrYHIHHkgchL9bLRfmi4kiW466z5s9DXH8sYX4pQDfI0b9I6chWgfKQOCJyJDuRFz5XncRZC4iu5wTS-wzS-vWvvTb9IUeGWOi2idbb9fTKSHuDfrLmQqv_67o8uOeFH5MqeMvh5Au9sGaCAFAGjeRVoY_b00NP1WXMK2rVFhMP_rlAw7SoUJIsHUIv0D27g1aX7UQSEroqEibb9bSJiq-bLHCGOb3CJfDerP6XH15pCWAmSKCmw0lu7yzZScCAYKBWf9AIy0tBycPHKa2SBzdhbx3zPQrNJJEDKDh-C0hXW5W9IybXJnY6lkQVhq3pzjw-IEkkn2VSX46_zO7LqT6gmqtEWdbVdpUx9Rrwa-Roz5KlNgWQptIJT_OiIa1cW8tQuFUwOYIKAnwqMXspCwfpGww2cxkmelgU47UDHyyAS96opek6Pqzcn1o7N2x0Qkr1xDp2KNVtBAARwrtdO5sOLF3hbADbb7_GDeXTdNFRBPPiti6Lz-pPlz0xvtPgeYh0RO6_gx0efPGO7qDxbHXlG6FcjOFnzAeQsIoSlsqXBQA5BWhQnM_cFqAQtq_rm--shBOv7JaEZdkJxa6qKg6LXdqc_1j5ncxshRssYmnXXsUwx3lo3Zt5S0NWrmoHqVQ475yVc7MKRgMgTUgvhSIcili7gDpRFUDNxje7SQVOzQ6y6uShMkrnb1LrdkVa72t0fidf3-BnFgLiscEfoKpTu7UlJIxXmuQ6XxZDk2Vyo2boY9AqEK5_aTBiYXAocDLJYqL_FObHTyUI00Z0Gyao628zu1260bv866CX3sG22aNzO1Y68bvpJr51lSy4qSgSbx3Owk7FruOJp2lan57NIQAsMUA7__fnZnqWD2uXGv0p0XE0f49QnqaEkwi0yJ6ZNK0swA81y9DM3w20kEMZv3WXECZo7R0mm9asnk6GSzquFTFumVeJSnHSO2AWrJCKt68YiDK7A7YA5sVRi3HLOVBHE-5qKmtSOIAerGSesAE5g0cL1Aaav3z4Y9PW4vuvZy0?></g></svg>