<svg xmlns="http://www.w3.org/2000/svg" xmlns:xlink="http://www.w3.org/1999/xlink" contentStyleType="text/css" data-diagram-type="DESCRIPTION" height="1007px" preserveAspectRatio="none" style="width:293px;height:1007px;background:#FFFFFF;" version="1.1" viewBox="0 0 293 1007" width="293px" zoomAndPan="magnify"><?plantuml 1.2026.6?><defs/><g><!--cluster ???????--><g class="cluster" data-qualified-name="......." data-source-line="11" id="ent0004"><rect fill="none" height="608" rx="2.5" ry="2.5" style="stroke:#181818;stroke-width:1;" width="187.7" x="92" y="385"/><text fill="#000000" font-family="Arial" font-size="14" font-weight="700" lengthAdjust="spacing" textLength="97.9996" x="136.8502" y="399.9951">&#23457;&#25209;&#19982;&#31995;&#32479;&#31649;&#29702;</text></g><!--cluster ?????--><g class="cluster" data-qualified-name="....." data-source-line="22" id="ent0013"><rect fill="none" height="354" rx="2.5" ry="2.5" style="stroke:#181818;stroke-width:1;" width="133.9" x="118.9" y="7"/><text fill="#000000" font-family="Arial" font-size="14" font-weight="700" lengthAdjust="spacing" textLength="69.9997" x="150.8502" y="21.9951">&#31649;&#29702;&#21592;&#19987;&#23646;</text></g><!--entity UC1--><g class="entity" data-qualified-name="........UC1" data-source-line="12" id="ent0005"><ellipse cx="185.8473" cy="962.0036" fill="#F1F1F1" rx="52.4973" ry="14.5236" style="stroke:#181818;stroke-width:0.5;"/><text fill="#000000" font-family="Arial" font-size="14" lengthAdjust="spacing" textLength="69.9997" x="150.8474" y="966.6521">&#26597;&#30475;&#24453;&#23457;&#25209;</text></g><!--entity UC2--><g class="entity" data-qualified-name="........UC2" data-source-line="13" id="ent0006"><ellipse cx="185.8549" cy="888.0033" fill="#F1F1F1" rx="40.4949" ry="24.8233" style="stroke:#181818;stroke-width:0.5;"/><text fill="#000000" font-family="Arial" font-size="14" lengthAdjust="spacing" textLength="55.9998" x="157.855" y="886.2858">&#23457;&#25209;&#36890;&#36807;</text><text fill="#000000" font-family="Arial" font-size="14" lengthAdjust="spacing" textLength="41.9998" x="164.855" y="902.5826">&#38656;&#30830;&#35748;</text></g><!--entity UC3--><g class="entity" data-qualified-name="........UC3" data-source-line="14" id="ent0007"><ellipse cx="185.8478" cy="814.0036" fill="#F1F1F1" rx="42.5978" ry="14.5236" style="stroke:#181818;stroke-width:0.5;"/><text fill="#000000" font-family="Arial" font-size="14" lengthAdjust="spacing" textLength="55.9998" x="157.8479" y="818.6521">&#39539;&#22238;&#25253;&#38144;</text></g><!--entity UC4--><g class="entity" data-qualified-name="........UC4" data-source-line="15" id="ent0008"><ellipse cx="185.8542" cy="750.0028" fill="#F1F1F1" rx="61.5142" ry="14.7028" style="stroke:#181818;stroke-width:0.5;"/><text fill="#000000" font-family="Arial" font-size="14" lengthAdjust="spacing" textLength="83.9996" x="143.8544" y="754.6513">&#26597;&#30475;&#21592;&#24037;&#21015;&#34920;</text></g><!--entity UC5--><g class="entity" data-qualified-name="........UC5" data-source-line="16" id="ent0009"><ellipse cx="185.8497" cy="674.9978" fill="#F1F1F1" rx="67.2097" ry="25.5278" style="stroke:#181818;stroke-width:0.5;"/><text fill="#000000" font-family="Arial" font-size="14" lengthAdjust="spacing" textLength="83.9996" x="143.8499" y="670.7545">&#26597;&#30475;&#32452;&#32455;&#20449;&#24687;</text><text fill="#000000" font-family="Arial" font-size="14" lengthAdjust="spacing" textLength="92.9" x="139.3997" y="687.0514">&#37096;&#38376;&#183;&#39044;&#31639;&#183;&#30475;&#26495;</text></g><!--entity UC6--><g class="entity" data-qualified-name="........UC6" data-source-line="17" id="ent0010"><ellipse cx="185.8493" cy="591" fill="#F1F1F1" rx="77.8493" ry="23.95" style="stroke:#181818;stroke-width:0.5;"/><text fill="#000000" font-family="Arial" font-size="14" lengthAdjust="spacing" textLength="55.9998" x="157.8494" y="584.3679">&#21512;&#35268;&#26597;&#35810;</text><text fill="#000000" font-family="Arial" font-size="14" lengthAdjust="spacing" textLength="116.4497" x="127.6244" y="600.6648">&#25919;&#31574;&#26816;&#32034;&#183;&#21512;&#35268;&#26816;&#26597;</text></g><!--entity UC7--><g class="entity" data-qualified-name="........UC7" data-source-line="18" id="ent0011"><ellipse cx="185.8473" cy="518.0036" fill="#F1F1F1" rx="35.6373" ry="14.5236" style="stroke:#181818;stroke-width:0.5;"/><text fill="#000000" font-family="Arial" font-size="14" lengthAdjust="spacing" textLength="46.1561" x="162.7692" y="522.6521">AI &#23545;&#35805;</text></g><!--entity UC8--><g class="entity" data-qualified-name="........UC8" data-source-line="19" id="ent0012"><ellipse cx="185.8482" cy="444.0023" fill="#F1F1F1" rx="63.6882" ry="24.2923" style="stroke:#181818;stroke-width:0.5;"/><text fill="#000000" font-family="Arial" font-size="14" lengthAdjust="spacing" textLength="55.9998" x="157.8483" y="437.9085">&#26597;&#30475;&#25253;&#38144;</text><text fill="#000000" font-family="Arial" font-size="14" lengthAdjust="spacing" textLength="92.9" x="139.3982" y="454.2054">&#21015;&#34920;&#183;&#35814;&#24773;&#183;&#36827;&#24230;</text></g><!--entity UC9--><g class="entity" data-qualified-name="......UC9" data-source-line="23" id="ent0014"><ellipse cx="185.8454" cy="319.9988" fill="#F1F1F1" rx="40.3154" ry="24.7188" style="stroke:#181818;stroke-width:0.5;"/><text fill="#000000" font-family="Arial" font-size="14" lengthAdjust="spacing" textLength="55.9998" x="157.8455" y="318.4389">&#31649;&#29702;&#37096;&#38376;</text><text fill="#000000" font-family="Arial" font-size="14" lengthAdjust="spacing" textLength="40.5303" x="165.5802" y="334.7357">CRUD</text></g><!--entity UC10--><g class="entity" data-qualified-name="......UC10" data-source-line="24" id="ent0015"><ellipse cx="185.8454" cy="235.9988" fill="#F1F1F1" rx="40.3154" ry="24.7188" style="stroke:#181818;stroke-width:0.5;"/><text fill="#000000" font-family="Arial" font-size="14" lengthAdjust="spacing" textLength="55.9998" x="157.8455" y="234.4389">&#31649;&#29702;&#21592;&#24037;</text><text fill="#000000" font-family="Arial" font-size="14" lengthAdjust="spacing" textLength="40.5303" x="165.5802" y="250.7357">CRUD</text></g><!--entity UC11--><g class="entity" data-qualified-name="......UC11" data-source-line="25" id="ent0016"><ellipse cx="185.8454" cy="151.9988" fill="#F1F1F1" rx="40.3154" ry="24.7188" style="stroke:#181818;stroke-width:0.5;"/><text fill="#000000" font-family="Arial" font-size="14" lengthAdjust="spacing" textLength="55.9998" x="157.8455" y="150.4389">&#31649;&#29702;&#39044;&#31639;</text><text fill="#000000" font-family="Arial" font-size="14" lengthAdjust="spacing" textLength="40.5303" x="165.5802" y="166.7357">CRUD</text></g><!--entity UC12--><g class="entity" data-qualified-name="......UC12" data-source-line="26" id="ent0017"><ellipse cx="185.8501" cy="66.9968" fill="#F1F1F1" rx="50.9501" ry="25.3268" style="stroke:#181818;stroke-width:0.5;"/><text fill="#000000" font-family="Arial" font-size="14" lengthAdjust="spacing" textLength="69.9997" x="150.8502" y="64.5327">&#31649;&#29702;&#30693;&#35782;&#24211;</text><text fill="#000000" font-family="Arial" font-size="14" lengthAdjust="spacing" textLength="60.45" x="155.6251" y="80.8295">&#25991;&#26723;&#183;&#32034;&#24341;</text></g><!--entity App--><g class="entity" data-qualified-name="App" data-source-line="6" id="ent0001"><ellipse cx="26.9999" cy="645.35" fill="#F1F1F1" rx="8" ry="8" style="stroke:#181818;stroke-width:0.5;"/><path d="M26.9999,653.35 L26.9999,680.35 M13.9999,661.35 L39.9999,661.35 M26.9999,680.35 L13.9999,695.35 M26.9999,680.35 L39.9999,695.35" fill="none" style="stroke:#181818;stroke-width:0.5;"/><text fill="#000000" font-family="Arial" font-size="14" lengthAdjust="spacing" textLength="41.9998" x="6" y="709.8451">&#23457;&#25209;&#20154;</text></g><!--entity Adm--><g class="entity" data-qualified-name="Adm" data-source-line="7" id="ent0002"><ellipse cx="26.9999" cy="206.35" fill="#F1F1F1" rx="8" ry="8" style="stroke:#181818;stroke-width:0.5;"/><path d="M26.9999,214.35 L26.9999,241.35 M13.9999,222.35 L39.9999,222.35 M26.9999,241.35 L13.9999,256.35 M26.9999,241.35 L39.9999,256.35" fill="none" style="stroke:#181818;stroke-width:0.5;"/><text fill="#000000" font-family="Arial" font-size="14" lengthAdjust="spacing" textLength="41.9998" x="6" y="270.8451">&#31649;&#29702;&#21592;</text></g><!--link Adm to App--><g class="link" data-entity-1="ent0002" data-entity-2="ent0001" data-link-type="extension" data-source-line="9" id="lnk3"><path d="M27,274.32 C27,395.02 27,497.72 27,618.42" fill="none" id="Adm-to-App" style="stroke:#181818;stroke-width:1;"/><polygon fill="none" points="27,636.42,33,618.42,21,618.42,27,636.42" style="stroke:#181818;stroke-width:1;stroke-linejoin:miter;stroke-miterlimit:10;"/></g><!--link App to UC1--><g class="link" data-entity-1="ent0001" data-entity-2="ent0005" data-link-type="dependency" data-source-line="29" id="lnk18"><path d="M31.76,713.51 C38.67,776.74 55.39,898.66 84,930 C97.37,944.65 112.5389,951.5121 131.2389,955.8421" fill="none" id="App-to-UC1" style="stroke:#181818;stroke-width:1;"/><polygon fill="#181818" points="136.11,956.97,128.2443,951.0429,131.2389,955.8421,126.4397,958.8367,136.11,956.97" style="stroke:#181818;stroke-width:1;stroke-linejoin:miter;stroke-miterlimit:10;"/></g><!--link App to UC2--><g class="link" data-entity-1="ent0001" data-entity-2="ent0006" data-link-type="dependency" data-source-line="30" id="lnk19"><path d="M31.4,713.62 C36.67,751.68 50.06,809.3 84,846 C100.48,863.82 120.8837,872.9419 141.9837,878.9919" fill="none" id="App-to-UC2" style="stroke:#181818;stroke-width:1;"/><polygon fill="#181818" points="146.79,880.37,139.2411,874.0443,141.9837,878.9919,137.0361,881.7345,146.79,880.37" style="stroke:#181818;stroke-width:1;stroke-linejoin:miter;stroke-miterlimit:10;"/></g><!--link App to UC3--><g class="link" data-entity-1="ent0001" data-entity-2="ent0007" data-link-type="dependency" data-source-line="31" id="lnk20"><path d="M39.76,713.47 C48.57,736.32 62.8,764.21 84,782 C101.31,796.52 120.3818,803.4184 140.6018,807.7684" fill="none" id="App-to-UC3" style="stroke:#181818;stroke-width:1;"/><polygon fill="#181818" points="145.49,808.82,137.5326,803.0166,140.6018,807.7684,135.85,810.8376,145.49,808.82" style="stroke:#181818;stroke-width:1;stroke-linejoin:miter;stroke-miterlimit:10;"/></g><!--link App to UC4--><g class="link" data-entity-1="ent0001" data-entity-2="ent0008" data-link-type="dependency" data-source-line="32" id="lnk21"><path d="M48.36,693.4 C58.5,701.81 71.29,711.36 84,718 C101.75,727.26 117.8623,733.0667 136.0323,738.2567" fill="none" id="App-to-UC4" style="stroke:#181818;stroke-width:1;"/><polygon fill="#181818" points="140.84,739.63,133.2847,733.312,136.0323,738.2567,131.0875,741.0043,140.84,739.63" style="stroke:#181818;stroke-width:1;stroke-linejoin:miter;stroke-miterlimit:10;"/></g><!--link App to UC5--><g class="link" data-entity-1="ent0001" data-entity-2="ent0009" data-link-type="dependency" data-source-line="33" id="lnk22"><path d="M48.18,675 C65.97,675 87.92,675 113.2,675" fill="none" id="App-to-UC5" style="stroke:#181818;stroke-width:1;"/><polygon fill="#181818" points="118.2,675,109.2,671,113.2,675,109.2,679,118.2,675" style="stroke:#181818;stroke-width:1;stroke-linejoin:miter;stroke-miterlimit:10;"/></g><!--link App to UC6--><g class="link" data-entity-1="ent0001" data-entity-2="ent0010" data-link-type="dependency" data-source-line="34" id="lnk23"><path d="M48.33,657.26 C58.57,648.89 71.45,639.19 84,632 C99.33,623.21 112.2731,617.2155 128.4131,610.8055" fill="none" id="App-to-UC6" style="stroke:#181818;stroke-width:1;"/><polygon fill="#181818" points="133.06,608.96,123.2191,608.5644,128.4131,610.8055,126.1719,615.9995,133.06,608.96" style="stroke:#181818;stroke-width:1;stroke-linejoin:miter;stroke-miterlimit:10;"/></g><!--link App to UC7--><g class="link" data-entity-1="ent0001" data-entity-2="ent0011" data-link-type="dependency" data-source-line="35" id="lnk24"><path d="M36.35,636.38 C44.23,608.73 58.71,572.56 84,550 C102.5,533.49 124.6201,526.3912 146.0401,522.5112" fill="none" id="App-to-UC7" style="stroke:#181818;stroke-width:1;"/><polygon fill="#181818" points="150.96,521.62,141.3912,519.2882,146.0401,522.5112,142.8171,527.1601,150.96,521.62" style="stroke:#181818;stroke-width:1;stroke-linejoin:miter;stroke-miterlimit:10;"/></g><!--link App to UC8--><g class="link" data-entity-1="ent0001" data-entity-2="ent0012" data-link-type="dependency" data-source-line="36" id="lnk25"><path d="M29.85,636.63 C33.83,594.77 46.14,528.13 84,486 C96.3,472.32 109.066,464.7193 126.016,458.3893" fill="none" id="App-to-UC8" style="stroke:#181818;stroke-width:1;"/><polygon fill="#181818" points="130.7,456.64,120.8693,456.0414,126.016,458.3893,123.6682,463.5359,130.7,456.64" style="stroke:#181818;stroke-width:1;stroke-linejoin:miter;stroke-miterlimit:10;"/></g><!--link Adm to UC9--><g class="link" data-entity-1="ent0002" data-entity-2="ent0014" data-link-type="dependency" data-source-line="38" id="lnk26"><path d="M48.42,253.25 C58.68,261.41 71.55,270.89 84,278 C105.08,290.04 125.6093,298.7818 145.5493,306.2718" fill="none" id="Adm-to-UC9" style="stroke:#181818;stroke-width:1;"/><polygon fill="#181818" points="150.23,308.03,143.2113,301.1207,145.5493,306.2718,140.3982,308.6098,150.23,308.03" style="stroke:#181818;stroke-width:1;stroke-linejoin:miter;stroke-miterlimit:10;"/></g><!--link Adm to UC10--><g class="link" data-entity-1="ent0002" data-entity-2="ent0015" data-link-type="dependency" data-source-line="39" id="lnk27"><path d="M48.18,236 C72.59,236 109.24,236 140.16,236" fill="none" id="Adm-to-UC10" style="stroke:#181818;stroke-width:1;"/><polygon fill="#181818" points="145.16,236,136.16,232,140.16,236,136.16,240,145.16,236" style="stroke:#181818;stroke-width:1;stroke-linejoin:miter;stroke-miterlimit:10;"/></g><!--link Adm to UC11--><g class="link" data-entity-1="ent0002" data-entity-2="ent0016" data-link-type="dependency" data-source-line="40" id="lnk28"><path d="M48.42,218.75 C58.68,210.59 71.55,201.11 84,194 C105.08,181.96 125.6093,173.2182 145.5493,165.7282" fill="none" id="Adm-to-UC11" style="stroke:#181818;stroke-width:1;"/><polygon fill="#181818" points="150.23,163.97,140.3982,163.3902,145.5493,165.7282,143.2113,170.8793,150.23,163.97" style="stroke:#181818;stroke-width:1;stroke-linejoin:miter;stroke-miterlimit:10;"/></g><!--link Adm to UC12--><g class="link" data-entity-1="ent0002" data-entity-2="ent0017" data-link-type="dependency" data-source-line="41" id="lnk29"><path d="M37.02,197.49 C45.2,170.01 59.78,133.85 84,110 C99.26,94.97 115.8562,86.4889 134.9662,79.8589" fill="none" id="Adm-to-UC12" style="stroke:#181818;stroke-width:1;"/><polygon fill="#181818" points="139.69,78.22,129.8761,77.3909,134.9662,79.8589,132.4983,84.949,139.69,78.22" style="stroke:#181818;stroke-width:1;stroke-linejoin:miter;stroke-miterlimit:10;"/></g><!--link UC1 to UC2--><!--link UC2 to UC3--><!--link UC3 to UC4--><!--link UC4 to UC5--><!--link UC5 to UC6--><!--link UC6 to UC7--><!--link UC7 to UC8--><!--link UC9 to UC10--><!--link UC10 to UC11--><!--link UC11 to UC12--><?plantuml-src RLFBRjf05DtFLupefbqWrRpPH49KaRhfebLMfGiNEyGAsCYOJHyILKX86wbAb3H4pKk6aj95GLKYaK1LItmBux7_ejUFqA6C9O_Fd7FkdRbtnhLDHQsAkbZ1hyNYPadNwggKrygQZX-i-W-gpHsIl2xMoyQgfXhFn8gCSxeYbldw2-MDZ8K4Ailh1ZOqh2kb3GDBYYuN3KLJ4HAB1gmH8GFJ_dWt6uyZMApXNBLwBz21IVTtoC5984WLX630qNShlWjvYKIrL9RdEMu_q-i9dLm6aH7y5c5Shyb5iIRZX_PbZvxjaJ_RWVcHbtGjBx2MG74RNnshLL3TimOr1yxWMsYDiLRtnpKvlR0_zToZHgZ7EQiTd91HZ-os7RCVkXBBBZffqabhPfdsXo4ikzLts_tfoEqqwQ0z7O71FhV2wEJ2TlTtdUzDoE4CEmNLFhBepsExsw0tdUaerBeDaCFO51kRUuh9yCuPdeTYUdbRGN45DTZ-TEGCh-ojRVXQfsHy5SPbqFk5avWVskpsaFow-EyC0ZMeiA3cdwyz2TDabrr1xnPSmcDEChzDYpPXsKQzBksGyI4qwhXbcrrex4s7_Fvo7nFp2e5xXQFH5VzU_CCn1iSPd61mai4f1gSPd0ali3_9CXZgOYO2EuaX12EEljnG94bMN_b_KTJV5BmSFWvydCCdW4zm-2JmIGwV0Zx5uTF0fpby1lWiXuVQl86d29x2gmsg_Wi0?></g></svg>