<svg xmlns="http://www.w3.org/2000/svg" xmlns:xlink="http://www.w3.org/1999/xlink" contentStyleType="text/css" data-diagram-type="DESCRIPTION" height="220px" preserveAspectRatio="none" style="width:1634px;height:220px;background:#FFFFFF;" version="1.1" viewBox="0 0 1634 220" width="1634px" zoomAndPan="magnify"><?plantuml 1.2026.6?><defs/><g><!--cluster ????--><g class="cluster" data-qualified-name="...." data-source-line="7" id="ent0002"><path d="M8.5,108.2 L61.5001,108.2 A3.75,3.75 0 0 1 64.0001,110.7 L71.0001,129.3328 L621.5,129.3328 A2.5,2.5 0 0 1 624,131.8328 L624,201.23 A2.5,2.5 0 0 1 621.5,203.73 L8.5,203.73 A2.5,2.5 0 0 1 6,201.23 L6,110.7 A2.5,2.5 0 0 1 8.5,108.2" fill="none" style="stroke:#000000;stroke-width:1.5;"/><line style="stroke:#000000;stroke-width:1.5;" x1="6" x2="71.0001" y1="129.3328" y2="129.3328"/><text fill="#000000" font-family="Arial" font-size="13" font-weight="700" lengthAdjust="spacing" textLength="52.0001" x="10" y="122.2669">&#26680;&#24515;&#27969;&#31243;</text></g><!--cluster ?????--><g class="cluster" data-qualified-name="....." data-source-line="15" id="ent0008"><path d="M650.5,106.64 L716.5001,106.64 A3.75,3.75 0 0 1 719.0001,109.14 L726.0001,127.7728 L1051.5,127.7728 A2.5,2.5 0 0 1 1054,130.2728 L1054,202.8 A2.5,2.5 0 0 1 1051.5,205.3 L650.5,205.3 A2.5,2.5 0 0 1 648,202.8 L648,109.14 A2.5,2.5 0 0 1 650.5,106.64" fill="none" style="stroke:#000000;stroke-width:1.5;"/><line style="stroke:#000000;stroke-width:1.5;" x1="648" x2="726.0001" y1="127.7728" y2="127.7728"/><text fill="#000000" font-family="Arial" font-size="13" font-weight="700" lengthAdjust="spacing" textLength="65.0001" x="652" y="120.7069">&#23457;&#26680;&#19982;&#36755;&#20986;</text></g><!--cluster ?????--><g class="cluster" data-qualified-name="....." data-source-line="21" id="ent0012"><path d="M1080.5,107.05 L1146.5001,107.05 A3.75,3.75 0 0 1 1149.0001,109.55 L1156.0001,128.1828 L1616.5,128.1828 A2.5,2.5 0 0 1 1619,130.6828 L1619,202.39 A2.5,2.5 0 0 1 1616.5,204.89 L1080.5,204.89 A2.5,2.5 0 0 1 1078,202.39 L1078,109.55 A2.5,2.5 0 0 1 1080.5,107.05" fill="none" style="stroke:#000000;stroke-width:1.5;"/><line style="stroke:#000000;stroke-width:1.5;" x1="1078" x2="1156.0001" y1="128.1828" y2="128.1828"/><text fill="#000000" font-family="Arial" font-size="13" font-weight="700" lengthAdjust="spacing" textLength="65.0001" x="1082" y="121.1169">&#26597;&#35810;&#19982;&#20132;&#20114;</text></g><!--entity UC0--><g class="entity" data-qualified-name=".....UC0" data-source-line="8" id="ent0003"><ellipse cx="61.9996" cy="164.9705" fill="#F1F1F1" rx="39.7696" ry="13.7005" style="stroke:#181818;stroke-width:0.5;"/><text fill="#000000" font-family="Arial" font-size="13" lengthAdjust="spacing" textLength="52.0001" x="35.9996" y="169.0369">&#30331;&#24405;&#27880;&#20876;</text></g><!--entity UC1--><g class="entity" data-qualified-name=".....UC1" data-source-line="9" id="ent0004"><ellipse cx="176.9996" cy="164.9705" fill="#F1F1F1" rx="39.7696" ry="13.7005" style="stroke:#181818;stroke-width:0.5;"/><text fill="#000000" font-family="Arial" font-size="13" lengthAdjust="spacing" textLength="52.0001" x="150.9996" y="169.0369">&#19978;&#20256;&#31080;&#25454;</text></g><!--entity UC2--><g class="entity" data-qualified-name=".....UC2" data-source-line="10" id="ent0005"><ellipse cx="301.002" cy="164.9705" fill="#F1F1F1" rx="48.962" ry="13.7005" style="stroke:#181818;stroke-width:0.5;"/><text fill="#000000" font-family="Arial" font-size="13" lengthAdjust="spacing" textLength="65.0001" x="268.502" y="169.0369">&#21019;&#24314;&#25253;&#38144;&#21333;</text></g><!--entity UC3--><g class="entity" data-qualified-name=".....UC3" data-source-line="11" id="ent0006"><ellipse cx="430.0046" cy="164.9732" fill="#F1F1F1" rx="45.4446" ry="22.7632" style="stroke:#181818;stroke-width:0.5;"/><text fill="#000000" font-family="Arial" font-size="13" lengthAdjust="spacing" textLength="65.0001" x="397.5046" y="163.8945">&#25552;&#20132;&#25253;&#38144;&#21333;</text><text fill="#000000" font-family="Arial" font-size="13" lengthAdjust="spacing" textLength="39" x="410.5046" y="179.0273">&#38656;&#30830;&#35748;</text></g><!--entity UC4--><g class="entity" data-qualified-name=".....UC4" data-source-line="12" id="ent0007"><ellipse cx="559.002" cy="164.9705" fill="#F1F1F1" rx="48.962" ry="13.7005" style="stroke:#181818;stroke-width:0.5;"/><text fill="#000000" font-family="Arial" font-size="13" lengthAdjust="spacing" textLength="65.0001" x="526.502" y="169.0369">&#21462;&#28040;&#25253;&#38144;&#21333;</text></g><!--entity UC5--><g class="entity" data-qualified-name="......UC5" data-source-line="16" id="ent0009"><ellipse cx="703.9996" cy="164.9705" fill="#F1F1F1" rx="39.7696" ry="13.7005" style="stroke:#181818;stroke-width:0.5;"/><text fill="#000000" font-family="Arial" font-size="13" lengthAdjust="spacing" textLength="52.0001" x="677.9996" y="169.0369">&#26816;&#26597;&#39044;&#31639;</text></g><!--entity UC6--><g class="entity" data-qualified-name="......UC6" data-source-line="17" id="ent0010"><ellipse cx="851.0033" cy="164.9735" fill="#F1F1F1" rx="72.5033" ry="22.4535" style="stroke:#181818;stroke-width:0.5;"/><text fill="#000000" font-family="Arial" font-size="13" lengthAdjust="spacing" textLength="52.0001" x="825.0032" y="158.5652">&#21512;&#35268;&#26597;&#35810;</text><text fill="#000000" font-family="Arial" font-size="13" lengthAdjust="spacing" textLength="108.1324" x="796.937" y="173.6981">&#26816;&#32034;&#25919;&#31574;&#183;&#21512;&#35268;&#26816;&#26597;</text></g><!--entity UC7--><g class="entity" data-qualified-name="......UC7" data-source-line="18" id="ent0011"><ellipse cx="998.0016" cy="164.9724" fill="#F1F1F1" rx="39.6516" ry="24.3324" style="stroke:#181818;stroke-width:0.5;"/><text fill="#000000" font-family="Arial" font-size="13" lengthAdjust="spacing" textLength="51.3272" x="972.338" y="161.3751">&#29983;&#25104;PDF</text><text fill="#000000" font-family="Arial" font-size="13" lengthAdjust="spacing" textLength="52.0001" x="972.0016" y="176.5079">&#21457;&#36865;&#37038;&#20214;</text></g><!--entity UC8--><g class="entity" data-qualified-name="......UC8" data-source-line="22" id="ent0013"><ellipse cx="1153.0036" cy="164.9714" fill="#F1F1F1" rx="59.3536" ry="22.7714" style="stroke:#181818;stroke-width:0.5;"/><text fill="#000000" font-family="Arial" font-size="13" lengthAdjust="spacing" textLength="52.0001" x="1127.0036" y="159.0629">&#26597;&#30475;&#25253;&#38144;</text><text fill="#000000" font-family="Arial" font-size="13" lengthAdjust="spacing" textLength="86.2647" x="1109.8712" y="174.1957">&#21015;&#34920;&#183;&#35814;&#24773;&#183;&#36827;&#24230;</text></g><!--entity UC9--><g class="entity" data-qualified-name="......UC9" data-source-line="23" id="ent0014"><ellipse cx="1294.0024" cy="164.9707" fill="#F1F1F1" rx="46.9424" ry="23.4607" style="stroke:#181818;stroke-width:0.5;"/><text fill="#000000" font-family="Arial" font-size="13" lengthAdjust="spacing" textLength="52.0001" x="1268.0024" y="160.1087">&#31080;&#25454;&#27719;&#24635;</text><text fill="#000000" font-family="Arial" font-size="13" lengthAdjust="spacing" textLength="65.0001" x="1261.5024" y="175.2415">&#26377;&#25928;&#26399;&#26657;&#39564;</text></g><!--entity UC10--><g class="entity" data-qualified-name="......UC10" data-source-line="24" id="ent0015"><ellipse cx="1439.0036" cy="164.9687" fill="#F1F1F1" rx="62.6236" ry="23.9187" style="stroke:#181818;stroke-width:0.5;"/><text fill="#000000" font-family="Arial" font-size="13" lengthAdjust="spacing" textLength="78.0001" x="1400.0036" y="160.7785">&#26597;&#30475;&#32452;&#32455;&#20449;&#24687;</text><text fill="#000000" font-family="Arial" font-size="13" lengthAdjust="spacing" textLength="86.2647" x="1395.8712" y="175.9113">&#37096;&#38376;&#183;&#39044;&#31639;&#183;&#30475;&#26495;</text></g><!--entity UC11--><g class="entity" data-qualified-name="......UC11" data-source-line="25" id="ent0016"><ellipse cx="1569.9962" cy="164.9705" fill="#F1F1F1" rx="33.3062" ry="13.7005" style="stroke:#181818;stroke-width:0.5;"/><text fill="#000000" font-family="Arial" font-size="13" lengthAdjust="spacing" textLength="42.8594" x="1548.5665" y="169.0369">AI &#23545;&#35805;</text></g><!--entity Emp--><g class="entity" data-qualified-name="Emp" data-source-line="5" id="ent0001"><ellipse cx="777" cy="14" fill="#F1F1F1" rx="8" ry="8" style="stroke:#181818;stroke-width:0.5;"/><path d="M777,22 L777,49 M764,30 L790,30 M777,49 L764,64 M777,49 L790,64" fill="none" style="stroke:#181818;stroke-width:0.5;"/><text fill="#000000" font-family="Arial" font-size="13" lengthAdjust="spacing" textLength="26" x="764" y="77.5669">&#21592;&#24037;</text></g><!--link Emp to UC0--><g class="link" data-entity-1="ent0001" data-entity-2="ent0003" data-link-type="dependency" data-source-line="28" id="lnk17"><path d="M763.08,43.84 C678.99,42.66 238.36,39.43 120,98.64 C96.67,110.31 81.1096,131.519 71.6996,146.979" fill="none" id="Emp-to-UC0" style="stroke:#181818;stroke-width:1;"/><polygon fill="#181818" points="69.1,151.25,77.1962,145.6418,71.6996,146.979,70.3625,141.4824,69.1,151.25" style="stroke:#181818;stroke-width:1;stroke-linejoin:miter;stroke-miterlimit:10;"/></g><!--link Emp to UC1--><g class="link" data-entity-1="ent0001" data-entity-2="ent0004" data-link-type="dependency" data-source-line="29" id="lnk18"><path d="M763.4,44.12 C689.04,44.58 331.42,49.35 235,98.64 C211.91,110.44 196.4094,131.361 186.9194,146.791" fill="none" id="Emp-to-UC1" style="stroke:#181818;stroke-width:1;"/><polygon fill="#181818" points="184.3,151.05,192.4221,145.4794,186.9194,146.791,185.6078,141.2884,184.3,151.05" style="stroke:#181818;stroke-width:1;stroke-linejoin:miter;stroke-miterlimit:10;"/></g><!--link Emp to UC2--><g class="link" data-entity-1="ent0001" data-entity-2="ent0005" data-link-type="dependency" data-source-line="30" id="lnk19"><path d="M763.19,44.73 C700.12,47.93 439.36,63.12 367,98.64 C342.25,110.78 324.0909,131.8284 312.7809,147.1384" fill="none" id="Emp-to-UC2" style="stroke:#181818;stroke-width:1;"/><polygon fill="#181818" points="309.81,151.16,318.375,146.2978,312.7809,147.1384,311.9403,141.5443,309.81,151.16" style="stroke:#181818;stroke-width:1;stroke-linejoin:miter;stroke-miterlimit:10;"/></g><!--link Emp to UC3--><g class="link" data-entity-1="ent0001" data-entity-2="ent0006" data-link-type="dependency" data-source-line="31" id="lnk20"><path d="M763.01,43.86 C719.93,43.78 586.58,47.91 493,98.64 C473.33,109.3 459.166,124.2804 447.716,139.0304" fill="none" id="Emp-to-UC3" style="stroke:#181818;stroke-width:1;"/><polygon fill="#181818" points="444.65,142.98,453.3285,138.3234,447.716,139.0304,447.0091,133.4178,444.65,142.98" style="stroke:#181818;stroke-width:1;stroke-linejoin:miter;stroke-miterlimit:10;"/></g><!--link Emp to UC4--><g class="link" data-entity-1="ent0001" data-entity-2="ent0007" data-link-type="dependency" data-source-line="32" id="lnk21"><path d="M763.33,48.66 C739.23,57.01 687.96,75.93 648,98.64 C620.17,114.45 594.6283,134.2498 577.5583,148.3198" fill="none" id="Emp-to-UC4" style="stroke:#181818;stroke-width:1;"/><polygon fill="#181818" points="573.7,151.5,583.1891,148.8623,577.5583,148.3198,578.1007,142.689,573.7,151.5" style="stroke:#181818;stroke-width:1;stroke-linejoin:miter;stroke-miterlimit:10;"/></g><!--link Emp to UC5--><g class="link" data-entity-1="ent0001" data-entity-2="ent0009" data-link-type="dependency" data-source-line="33" id="lnk22"><path d="M763.1,66.9 C747.87,91.91 726.5993,126.8388 714.3793,146.9188" fill="none" id="Emp-to-UC5" style="stroke:#181818;stroke-width:1;"/><polygon fill="#181818" points="711.78,151.19,719.8758,145.5812,714.3793,146.9188,713.0418,141.4223,711.78,151.19" style="stroke:#181818;stroke-width:1;stroke-linejoin:miter;stroke-miterlimit:10;"/></g><!--link Emp to UC6--><g class="link" data-entity-1="ent0001" data-entity-2="ent0010" data-link-type="dependency" data-source-line="34" id="lnk23"><path d="M790.92,66.62 C804.4,88.46 822.0633,117.0855 835.2633,138.4655" fill="none" id="Emp-to-UC6" style="stroke:#181818;stroke-width:1;"/><polygon fill="#181818" points="837.89,142.72,836.5655,132.9606,835.2633,138.4655,829.7584,137.1633,837.89,142.72" style="stroke:#181818;stroke-width:1;stroke-linejoin:miter;stroke-miterlimit:10;"/></g><!--link Emp to UC7--><g class="link" data-entity-1="ent0001" data-entity-2="ent0011" data-link-type="dependency" data-source-line="35" id="lnk24"><path d="M790.82,46.13 C820.48,51.08 891.54,65.71 941,98.64 C958.04,109.98 970.1073,123.675 980.4473,137.805" fill="none" id="Emp-to-UC7" style="stroke:#181818;stroke-width:1;"/><polygon fill="#181818" points="983.4,141.84,981.3131,132.2148,980.4473,137.805,974.8571,136.9392,983.4,141.84" style="stroke:#181818;stroke-width:1;stroke-linejoin:miter;stroke-miterlimit:10;"/></g><!--link Emp to UC8--><g class="link" data-entity-1="ent0001" data-entity-2="ent0013" data-link-type="dependency" data-source-line="36" id="lnk25"><path d="M790.8,44.9 C832.18,47.78 958.3,59.42 1054,98.64 C1081.44,109.88 1105.363,126.1065 1124.523,140.8065" fill="none" id="Emp-to-UC8" style="stroke:#181818;stroke-width:1;"/><polygon fill="#181818" points="1128.49,143.85,1123.7843,135.198,1124.523,140.8065,1118.9146,141.5452,1128.49,143.85" style="stroke:#181818;stroke-width:1;stroke-linejoin:miter;stroke-miterlimit:10;"/></g><!--link Emp to UC9--><g class="link" data-entity-1="ent0001" data-entity-2="ent0014" data-link-type="dependency" data-source-line="37" id="lnk26"><path d="M790.9,44.51 C858.13,46.84 1149.7,59.07 1230,98.64 C1250.08,108.53 1264.3964,123.3885 1275.9564,138.2985" fill="none" id="Emp-to-UC9" style="stroke:#181818;stroke-width:1;"/><polygon fill="#181818" points="1279.02,142.25,1276.6666,132.6864,1275.9564,138.2985,1270.3443,137.5883,1279.02,142.25" style="stroke:#181818;stroke-width:1;stroke-linejoin:miter;stroke-miterlimit:10;"/></g><!--link Emp to UC10--><g class="link" data-entity-1="ent0001" data-entity-2="ent0015" data-link-type="dependency" data-source-line="38" id="lnk27"><path d="M790.93,44.29 C868.76,45.72 1250.31,54.85 1358,98.64 C1381.6,108.23 1400.2146,123.5645 1415.3746,138.5545" fill="none" id="Emp-to-UC10" style="stroke:#181818;stroke-width:1;"/><polygon fill="#181818" points="1418.93,142.07,1415.3427,132.8977,1415.3746,138.5545,1409.7178,138.5864,1418.93,142.07" style="stroke:#181818;stroke-width:1;stroke-linejoin:miter;stroke-miterlimit:10;"/></g><!--link Emp to UC11--><g class="link" data-entity-1="ent0001" data-entity-2="ent0016" data-link-type="dependency" data-source-line="39" id="lnk28"><path d="M790.71,44.41 C886.39,46.89 1452.28,62.99 1519,98.64 C1540.83,110.3 1554.092,131.3189 1561.922,146.7889" fill="none" id="Emp-to-UC11" style="stroke:#181818;stroke-width:1;"/><polygon fill="#181818" points="1564.18,151.25,1563.6846,141.4136,1561.922,146.7889,1556.5468,145.0263,1564.18,151.25" style="stroke:#181818;stroke-width:1;stroke-linejoin:miter;stroke-miterlimit:10;"/></g><?plantuml-src RLBVRz9G57xlNt63pqlisCyNasLAueinCRxnScLr8OD2ABneJ8gWrCq9cp0qOu7YEXiJsnXrOAkIyBVqdjl-5zwLCc_HllHBlk-Sxplt76KlAnTn2UVH8vpPsoqLAlBETY5NAA4RgV0Jb6l5ZlGOLtBbL44ktyDv2MsLiZZtV_v1zec4nAGWu4oPzKgGetTaP2GGLj2TV54GYimCxqee0OCncTJWUvMQ1mdqL42eeaWPh32AldV9hmvyDSdBrs7bm-sRFE-DzxsV0sgOS6X5lCZpH3ibhWFxHj1MoM4daYpp4cYsFEVyMfAMWvvATSktpYDrCjQmUGANscB35U4PDm-nT3QIDtxZ_tvB6ix2IF11XRuH3ElKwaRbgp67bkP_h3E9Rm_JCbFJRqDeJ-Zda-aeui8EKUrQxBdQVT1Qzs-dqZ9f7WLgDNXkUUvb95sFfPmvi9HiUiyvNapPDsZlO3OdQwPrVTsSZdpx0cels7zoIfoBgEr6B46u2lZI0DLbwNkleAD1hmy3FVWqt-3clqRKhLEtuKrqgDfi0pKpw3AxsIDDHrT9pYRp_SOEOEik8lOFtpwRi-BLaEo-qDBIhV1Q_cAHmyiSJd9uXSEh75xZy3g7DpYyoNl5Z4NX3m00?></g></svg>