<svg xmlns="http://www.w3.org/2000/svg" xmlns:xlink="http://www.w3.org/1999/xlink" contentStyleType="text/css" data-diagram-type="DESCRIPTION" height="535px" preserveAspectRatio="none" style="width:920px;height:535px;background:#FFFFFF;" version="1.1" viewBox="0 0 920 535" width="920px" zoomAndPan="magnify"><?plantuml 1.2026.6?><defs/><g><!--cluster ? ????--><g class="cluster" data-qualified-name=". ...." data-source-line="7" id="ent0002"><path d="M8.5,121.77 L73.8272,121.77 A3.75,3.75 0 0 1 76.3272,124.27 L83.3272,142.9028 L133.5,142.9028 A2.5,2.5 0 0 1 136,145.4028 L136,517.42 A2.5,2.5 0 0 1 133.5,519.92 L8.5,519.92 A2.5,2.5 0 0 1 6,517.42 L6,124.27 A2.5,2.5 0 0 1 8.5,121.77" fill="none" style="stroke:#000000;stroke-width:1.5;"/><line style="stroke:#000000;stroke-width:1.5;" x1="6" x2="83.3272" y1="142.9028" y2="142.9028"/><text fill="#000000" font-family="Arial" font-size="13" font-weight="700" lengthAdjust="spacing" textLength="64.3272" x="10" y="135.8369">&#128203; &#25253;&#38144;&#27969;&#31243;</text></g><!--cluster ? ????--><g class="cluster" data-qualified-name=". ...." data-source-line="14" id="ent0007"><path d="M369.5,121.77 L434.8272,121.77 A3.75,3.75 0 0 1 437.3272,124.27 L444.3272,142.9028 L542.5,142.9028 A2.5,2.5 0 0 1 545,145.4028 L545,517.8 A2.5,2.5 0 0 1 542.5,520.3 L369.5,520.3 A2.5,2.5 0 0 1 367,517.8 L367,124.27 A2.5,2.5 0 0 1 369.5,121.77" fill="none" style="stroke:#000000;stroke-width:1.5;"/><line style="stroke:#000000;stroke-width:1.5;" x1="367" x2="444.3272" y1="142.9028" y2="142.9028"/><text fill="#000000" font-family="Arial" font-size="13" font-weight="700" lengthAdjust="spacing" textLength="64.3272" x="371" y="135.8369">&#128269; &#23457;&#26680;&#26597;&#35810;</text></g><!--cluster ? ????--><g class="cluster" data-qualified-name=". ...." data-source-line="21" id="ent0012"><path d="M692.5,121.77 L757.8272,121.77 A3.75,3.75 0 0 1 760.3272,124.27 L767.3272,142.9028 L837.5,142.9028 A2.5,2.5 0 0 1 840,145.4028 L840,508.04 A2.5,2.5 0 0 1 837.5,510.54 L692.5,510.54 A2.5,2.5 0 0 1 690,508.04 L690,124.27 A2.5,2.5 0 0 1 692.5,121.77" fill="none" style="stroke:#000000;stroke-width:1.5;"/><line style="stroke:#000000;stroke-width:1.5;" x1="690" x2="767.3272" y1="142.9028" y2="142.9028"/><text fill="#000000" font-family="Arial" font-size="13" font-weight="700" lengthAdjust="spacing" textLength="64.3272" x="694" y="135.8369">&#128228; &#36755;&#20986;&#20132;&#20114;</text></g><!--entity UC0--><g class="entity" data-qualified-name=". .....UC0" data-source-line="8" id="ent0003"><ellipse cx="43.0048" cy="169.4705" fill="#F1F1F1" rx="21.3848" ry="13.7005" style="stroke:#181818;stroke-width:0.5;"/><text fill="#000000" font-family="Arial" font-size="13" lengthAdjust="spacing" textLength="26" x="30.0048" y="173.5369">&#30331;&#24405;</text></g><!--entity UC1--><g class="entity" data-qualified-name=". .....UC1" data-source-line="9" id="ent0004"><ellipse cx="71.0028" cy="267.4966" fill="#F1F1F1" rx="41.0228" ry="24.1766" style="stroke:#181818;stroke-width:0.5;"/><text fill="#000000" font-family="Arial" font-size="13" lengthAdjust="spacing" textLength="52.0001" x="45.0028" y="263.6775">&#19978;&#20256;&#31080;&#25454;</text><text fill="#000000" font-family="Arial" font-size="13" lengthAdjust="spacing" textLength="54.3423" x="43.8317" y="278.8103">OCR&#35782;&#21035;</text></g><!--entity UC2--><g class="entity" data-qualified-name=". .....UC2" data-source-line="10" id="ent0005"><ellipse cx="71.002" cy="374.6105" fill="#F1F1F1" rx="48.962" ry="13.7005" style="stroke:#181818;stroke-width:0.5;"/><text fill="#000000" font-family="Arial" font-size="13" lengthAdjust="spacing" textLength="65.0001" x="38.502" y="378.6769">&#21019;&#24314;&#25253;&#38144;&#21333;</text></g><!--entity UC3--><g class="entity" data-qualified-name=". .....UC3" data-source-line="11" id="ent0006"><ellipse cx="72.0016" cy="480.8431" fill="#F1F1F1" rx="46.1316" ry="23.0831" style="stroke:#181818;stroke-width:0.5;"/><text fill="#000000" font-family="Arial" font-size="13" lengthAdjust="spacing" textLength="65.0001" x="39.5015" y="479.2725">&#25552;&#20132;&#25253;&#38144;&#21333;</text><text fill="#000000" font-family="Arial" font-size="13" lengthAdjust="spacing" textLength="45.5" x="49.2515" y="494.4054">&#9208;&#38656;&#30830;&#35748;</text></g><!--entity UC4--><g class="entity" data-qualified-name=". .....UC4" data-source-line="15" id="ent0008"><ellipse cx="422.9996" cy="169.4705" fill="#F1F1F1" rx="39.7696" ry="13.7005" style="stroke:#181818;stroke-width:0.5;"/><text fill="#000000" font-family="Arial" font-size="13" lengthAdjust="spacing" textLength="52.0001" x="396.9996" y="173.5369">&#26816;&#26597;&#39044;&#31639;</text></g><!--entity UC5--><g class="entity" data-qualified-name=". .....UC5" data-source-line="16" id="ent0009"><ellipse cx="456.0033" cy="267.5035" fill="#F1F1F1" rx="72.5033" ry="22.4535" style="stroke:#181818;stroke-width:0.5;"/><text fill="#000000" font-family="Arial" font-size="13" lengthAdjust="spacing" textLength="52.0001" x="430.0032" y="261.0952">&#21512;&#35268;&#26816;&#26597;</text><text fill="#000000" font-family="Arial" font-size="13" lengthAdjust="spacing" textLength="108.1324" x="401.937" y="276.2281">&#25919;&#31574;&#26816;&#32034;&#183;&#21512;&#35268;&#23457;&#26680;</text></g><!--entity UC6--><g class="entity" data-qualified-name=". .....UC6" data-source-line="17" id="ent0010"><ellipse cx="456.0036" cy="374.6114" fill="#F1F1F1" rx="59.3536" ry="22.7714" style="stroke:#181818;stroke-width:0.5;"/><text fill="#000000" font-family="Arial" font-size="13" lengthAdjust="spacing" textLength="52.0001" x="430.0036" y="368.7029">&#26597;&#30475;&#25253;&#38144;</text><text fill="#000000" font-family="Arial" font-size="13" lengthAdjust="spacing" textLength="86.2647" x="412.8712" y="383.8357">&#21015;&#34920;&#183;&#35814;&#24773;&#183;&#36827;&#24230;</text></g><!--entity UC7--><g class="entity" data-qualified-name=". .....UC7" data-source-line="18" id="ent0011"><ellipse cx="469.0024" cy="480.8407" fill="#F1F1F1" rx="46.9424" ry="23.4607" style="stroke:#181818;stroke-width:0.5;"/><text fill="#000000" font-family="Arial" font-size="13" lengthAdjust="spacing" textLength="52.0001" x="443.0024" y="475.9787">&#31080;&#25454;&#27719;&#24635;</text><text fill="#000000" font-family="Arial" font-size="13" lengthAdjust="spacing" textLength="65.0001" x="436.5024" y="491.1115">&#26377;&#25928;&#26399;&#26657;&#39564;</text></g><!--entity UC8--><g class="entity" data-qualified-name=". .....UC8" data-source-line="22" id="ent0013"><ellipse cx="760.002" cy="169.4705" fill="#F1F1F1" rx="48.962" ry="13.7005" style="stroke:#181818;stroke-width:0.5;"/><text fill="#000000" font-family="Arial" font-size="13" lengthAdjust="spacing" textLength="65.0001" x="727.502" y="173.5369">&#21462;&#28040;&#25253;&#38144;&#21333;</text></g><!--entity UC9--><g class="entity" data-qualified-name=". .....UC9" data-source-line="23" id="ent0014"><ellipse cx="765.0016" cy="267.5024" fill="#F1F1F1" rx="39.6516" ry="24.3324" style="stroke:#181818;stroke-width:0.5;"/><text fill="#000000" font-family="Arial" font-size="13" lengthAdjust="spacing" textLength="51.3272" x="739.338" y="263.9051">&#29983;&#25104;PDF</text><text fill="#000000" font-family="Arial" font-size="13" lengthAdjust="spacing" textLength="52.0001" x="739.0016" y="279.0379">&#21457;&#36865;&#37038;&#20214;</text></g><!--entity UC10--><g class="entity" data-qualified-name=". .....UC10" data-source-line="24" id="ent0015"><ellipse cx="765.0036" cy="374.6114" fill="#F1F1F1" rx="59.3536" ry="22.7714" style="stroke:#181818;stroke-width:0.5;"/><text fill="#000000" font-family="Arial" font-size="13" lengthAdjust="spacing" textLength="52.0001" x="739.0036" y="368.7029">&#32452;&#32455;&#20449;&#24687;</text><text fill="#000000" font-family="Arial" font-size="13" lengthAdjust="spacing" textLength="86.2647" x="721.8712" y="383.8357">&#37096;&#38376;&#183;&#39044;&#31639;&#183;&#30475;&#26495;</text></g><!--entity UC11--><g class="entity" data-qualified-name=". .....UC11" data-source-line="25" id="ent0016"><ellipse cx="777.9962" cy="480.8405" fill="#F1F1F1" rx="33.3062" ry="13.7005" style="stroke:#181818;stroke-width:0.5;"/><text fill="#000000" font-family="Arial" font-size="13" lengthAdjust="spacing" textLength="42.8594" x="756.5665" y="484.9069">AI &#23545;&#35805;</text></g><!--entity Emp--><g class="entity" data-qualified-name="Emp" data-source-line="5" id="ent0001"><ellipse cx="469.0021" cy="14" fill="#F1F1F1" rx="8" ry="8" style="stroke:#181818;stroke-width:0.5;"/><path d="M469.0021,22 L469.0021,49 M456.0021,30 L482.0021,30 M469.0021,49 L456.0021,64 M469.0021,49 L482.0021,64" fill="none" style="stroke:#181818;stroke-width:0.5;"/><text fill="#000000" font-family="Arial" font-size="13" lengthAdjust="spacing" textLength="26" x="436.81" y="77.5669">&#21592;&#24037;</text><text fill="#000000" font-family="Arial" font-size="13" lengthAdjust="spacing" textLength="64.3843" x="436.81" y="92.6997">Employee</text></g><!--link Emp to UC0--><g class="link" data-entity-1="ent0001" data-entity-2="ent0003" data-link-type="dependency" data-source-line="28" id="lnk17"><path d="M436.48,54.16 C356.13,60.84 150.46,80.77 91,113.77 C72.88,123.83 60.9678,139.2339 52.8078,152.0339" fill="none" id="Emp-to-UC0" style="stroke:#181818;stroke-width:1;"/><polygon fill="#181818" points="50.12,156.25,58.3309,150.8112,52.8078,152.0339,51.5851,146.5107,50.12,156.25" style="stroke:#181818;stroke-width:1;stroke-linejoin:miter;stroke-miterlimit:10;"/></g><!--link Emp to UC1--><g class="link" data-entity-1="ent0001" data-entity-2="ent0004" data-link-type="dependency" data-source-line="29" id="lnk18"><path d="M436.42,54.88 C366.76,62.34 206.09,82.52 162,113.77 C116.29,146.16 91.2769,204.6687 79.6369,238.7287" fill="none" id="Emp-to-UC1" style="stroke:#181818;stroke-width:1;"/><polygon fill="#181818" points="78.02,243.46,84.7155,236.2371,79.6369,238.7287,77.1454,233.6501,78.02,243.46" style="stroke:#181818;stroke-width:1;stroke-linejoin:miter;stroke-miterlimit:10;"/></g><!--link Emp to UC2--><g class="link" data-entity-1="ent0001" data-entity-2="ent0005" data-link-type="dependency" data-source-line="30" id="lnk19"><path d="M436.61,52.48 C387.72,55.32 294.3,66.99 233,113.77 C160.32,169.24 179.7,215.1 130,291.84 C113.73,316.96 95.8976,341.0309 83.8376,356.8809" fill="none" id="Emp-to-UC2" style="stroke:#181818;stroke-width:1;"/><polygon fill="#181818" points="80.81,360.86,89.4431,356.1197,83.8376,356.8809,83.0765,351.2755,80.81,360.86" style="stroke:#181818;stroke-width:1;stroke-linejoin:miter;stroke-miterlimit:10;"/></g><!--link Emp to UC3--><g class="link" data-entity-1="ent0001" data-entity-2="ent0006" data-link-type="dependency" data-source-line="31" id="lnk20"><path d="M436.35,60.88 C406.71,70.49 363.04,87.78 332,113.77 C214.72,211.98 227.73,274.22 137,397.38 C121.21,418.81 105.4324,438.7209 92.0924,455.2309" fill="none" id="Emp-to-UC3" style="stroke:#181818;stroke-width:1;"/><polygon fill="#181818" points="88.95,459.12,97.7176,454.6335,92.0924,455.2309,91.495,449.6056,88.95,459.12" style="stroke:#181818;stroke-width:1;stroke-linejoin:miter;stroke-miterlimit:10;"/></g><!--link Emp to UC4--><g class="link" data-entity-1="ent0001" data-entity-2="ent0008" data-link-type="dependency" data-source-line="32" id="lnk21"><path d="M451.48,96.14 C443.1,117.42 435.5217,136.6676 429.8917,150.9676" fill="none" id="Emp-to-UC4" style="stroke:#181818;stroke-width:1;"/><polygon fill="#181818" points="428.06,155.62,435.079,148.711,429.8917,150.9676,427.6351,145.7803,428.06,155.62" style="stroke:#181818;stroke-width:1;stroke-linejoin:miter;stroke-miterlimit:10;"/></g><!--link Emp to UC5--><g class="link" data-entity-1="ent0001" data-entity-2="ent0009" data-link-type="dependency" data-source-line="33" id="lnk22"><path d="M477.82,95.97 C478.72,101.93 479.49,107.99 480,113.77 C482.7,144.5 484.31,152.63 480,183.17 C476.97,204.64 471.3922,223.5939 465.6522,240.2139" fill="none" id="Emp-to-UC5" style="stroke:#181818;stroke-width:1;"/><polygon fill="#181818" points="464.02,244.94,470.7389,237.7388,465.6522,240.2139,463.1772,235.1273,464.02,244.94" style="stroke:#181818;stroke-width:1;stroke-linejoin:miter;stroke-miterlimit:10;"/></g><!--link Emp to UC6--><g class="link" data-entity-1="ent0001" data-entity-2="ent0010" data-link-type="dependency" data-source-line="34" id="lnk23"><path d="M436.6,61.49 C412.38,70.74 380.99,87.22 366,113.77 C327.09,182.68 333.97,219.47 366,291.84 C377.96,318.86 399.634,337.9557 420.554,352.2757" fill="none" id="Emp-to-UC6" style="stroke:#181818;stroke-width:1;"/><polygon fill="#181818" points="424.68,355.1,419.5127,346.7156,420.554,352.2757,414.9939,353.3171,424.68,355.1" style="stroke:#181818;stroke-width:1;stroke-linejoin:miter;stroke-miterlimit:10;"/></g><!--link Emp to UC7--><g class="link" data-entity-1="ent0001" data-entity-2="ent0011" data-link-type="dependency" data-source-line="35" id="lnk24"><path d="M498.01,96.03 C501.27,101.88 504.37,107.88 507,113.77 C531.54,168.6 537.24,183.75 546,243.17 C556.03,311.22 559.23,333.8 533,397.38 C523.19,421.17 507.9962,440.2985 493.3562,455.8585" fill="none" id="Emp-to-UC7" style="stroke:#181818;stroke-width:1;"/><polygon fill="#181818" points="489.93,459.5,499.0105,455.6862,493.3562,455.8585,493.184,450.2042,489.93,459.5" style="stroke:#181818;stroke-width:1;stroke-linejoin:miter;stroke-miterlimit:10;"/></g><!--link Emp to UC8--><g class="link" data-entity-1="ent0001" data-entity-2="ent0013" data-link-type="dependency" data-source-line="36" id="lnk25"><path d="M501.59,57.43 C544.83,65.92 622.85,84.04 684,113.77 C707.39,125.14 727.4059,140.4488 741.9959,152.7388" fill="none" id="Emp-to-UC8" style="stroke:#181818;stroke-width:1;"/><polygon fill="#181818" points="745.82,155.96,741.5137,147.1025,741.9959,152.7388,736.3597,153.221,745.82,155.96" style="stroke:#181818;stroke-width:1;stroke-linejoin:miter;stroke-miterlimit:10;"/></g><!--link Emp to UC9--><g class="link" data-entity-1="ent0001" data-entity-2="ent0014" data-link-type="dependency" data-source-line="37" id="lnk26"><path d="M501.5,52.19 C581.53,54.31 784.6,64.54 826,113.77 C859.63,153.76 817.383,210.9291 788.633,242.3891" fill="none" id="Emp-to-UC9" style="stroke:#181818;stroke-width:1;"/><polygon fill="#181818" points="785.26,246.08,794.2841,242.1347,788.633,242.3891,788.3786,236.7379,785.26,246.08" style="stroke:#181818;stroke-width:1;stroke-linejoin:miter;stroke-miterlimit:10;"/></g><!--link Emp to UC10--><g class="link" data-entity-1="ent0001" data-entity-2="ent0015" data-link-type="dependency" data-source-line="38" id="lnk27"><path d="M501.64,59.01 C533.31,67.58 581.15,84.45 613,113.77 C679,174.52 661.16,215.34 708,291.84 C720.92,312.94 734.2416,331.9418 746.0916,348.1718" fill="none" id="Emp-to-UC10" style="stroke:#181818;stroke-width:1;"/><polygon fill="#181818" points="749.04,352.21,746.9634,342.5825,746.0916,348.1718,740.5023,347.3,749.04,352.21" style="stroke:#181818;stroke-width:1;stroke-linejoin:miter;stroke-miterlimit:10;"/></g><!--link Emp to UC11--><g class="link" data-entity-1="ent0001" data-entity-2="ent0016" data-link-type="dependency" data-source-line="39" id="lnk28"><path d="M501.56,51.68 C586.62,52.55 812.12,59.98 858,113.77 C886.01,146.61 905.06,233.49 842,397.38 C830.94,426.13 809.9245,449.5741 794.6545,464.4241" fill="none" id="Emp-to-UC11" style="stroke:#181818;stroke-width:1;"/><polygon fill="#181818" points="791.07,467.91,800.3108,464.503,794.6545,464.4241,794.7334,458.7678,791.07,467.91" style="stroke:#181818;stroke-width:1;stroke-linejoin:miter;stroke-miterlimit:10;"/></g><!--link UC0 to UC1--><!--link UC1 to UC2--><!--link UC2 to UC3--><!--link UC4 to UC5--><!--link UC5 to UC6--><!--link UC6 to UC7--><!--link UC8 to UC9--><!--link UC9 to UC10--><!--link UC10 to UC11--><?plantuml-src RL9TZz9057tlhvZWCycMRrvCDYY9BseqFbaVAdHNij0IFcBKc82BKXS9xC8kccN3Xx0IZMrCT46gal1JJ6VQllaJ76ZPdLAQD3rpxhdtddixsRq4dsOpR0eyPcDxknaXpySZGbB8W6lHvKDbBnLnReVD9tDHWS_TPbCSsCuasEJc-Ft4SmxGNefYOpbSomKFtyFnaE5lfj99uHd7kG2R1VX0KMdSbjtbWEjVfr41w61eD0leHr4RLLpW1GL0Fil5s2oEQnyK-FjucVWWiaL6rCc1-gkh3KUeAZ7ydSWzNNu3nI-Mb2QbK3o5ojJi0gkhQXvIWcfrTJgub33ytzh4Q1UqdgHB0ol1IxsqEMzM0PHwg3j1dQ4kzzUSeuy5p1lzaYQrh08-cwcwg7ygcIg6HysPzlK4dxJl_VdOZ9d5hLo_hNPdgBKhfbk6Xs9BxutcOrq-H_klyNTs2gVdLbx0jitbjj2tCYeek6VxBJeMKRk3kZtZypih8RWsPMC0z3yDM9xY_QZJexKfOUq4NOZhgmtPcZOxIApVlH75Jck7Hg5el99KvSAIXcrIfQGfPNNMGqMPuOtzaT72Svaxd8yN8v_DLZ_OTXcsRm4e_zJbirMKNao1hnfmkwylRyuLfWdi8R2Nm3u2-maS872Gm242XybUjiOqHM4hmFtmII8Uv_X7SU4fxruwmg-Jzc3QuwIzcFOvQJ-c_KuwWEc0amvYEkIamvWERp2ujN2uoJbD_GS0?></g></svg>