<svg xmlns="http://www.w3.org/2000/svg" xmlns:xlink="http://www.w3.org/1999/xlink" contentStyleType="text/css" data-diagram-type="DESCRIPTION" height="219px" preserveAspectRatio="none" style="width:1624px;height:219px;background:#FFFFFF;" version="1.1" viewBox="0 0 1624 219" width="1624px" zoomAndPan="magnify"><?plantuml 1.2026.6?><defs/><g><!--cluster ????--><g class="cluster" data-qualified-name="...." data-source-line="10" id="ent0004"><path d="M490.5,107.29 L543.5001,107.29 A3.75,3.75 0 0 1 546.0001,109.79 L553.0001,128.4228 L990.5,128.4228 A2.5,2.5 0 0 1 993,130.9228 L993,201.32 A2.5,2.5 0 0 1 990.5,203.82 L490.5,203.82 A2.5,2.5 0 0 1 488,201.32 L488,109.79 A2.5,2.5 0 0 1 490.5,107.29" fill="none" style="stroke:#000000;stroke-width:1.5;"/><line style="stroke:#000000;stroke-width:1.5;" x1="488" x2="553.0001" y1="128.4228" y2="128.4228"/><text fill="#000000" font-family="Arial" font-size="13" font-weight="700" lengthAdjust="spacing" textLength="52.0001" x="492" y="121.3569">&#23457;&#25209;&#31649;&#29702;</text></g><!--cluster ????--><g class="cluster" data-qualified-name="...." data-source-line="17" id="ent0009"><path d="M1019.5,106.63 L1072.5001,106.63 A3.75,3.75 0 0 1 1075.0001,109.13 L1082.0001,127.7628 L1606.5,127.7628 A2.5,2.5 0 0 1 1609,130.2628 L1609,201.97 A2.5,2.5 0 0 1 1606.5,204.47 L1019.5,204.47 A2.5,2.5 0 0 1 1017,201.97 L1017,109.13 A2.5,2.5 0 0 1 1019.5,106.63" fill="none" style="stroke:#000000;stroke-width:1.5;"/><line style="stroke:#000000;stroke-width:1.5;" x1="1017" x2="1082.0001" y1="127.7628" y2="127.7628"/><text fill="#000000" font-family="Arial" font-size="13" font-weight="700" lengthAdjust="spacing" textLength="52.0001" x="1021" y="120.6969">&#20844;&#20849;&#26597;&#35810;</text></g><!--cluster ?????--><g class="cluster" data-qualified-name="....." data-source-line="24" id="ent0014"><path d="M8.5,106.82 L74.5001,106.82 A3.75,3.75 0 0 1 77.0001,109.32 L84.0001,127.9528 L461.5,127.9528 A2.5,2.5 0 0 1 464,130.4528 L464,201.78 A2.5,2.5 0 0 1 461.5,204.28 L8.5,204.28 A2.5,2.5 0 0 1 6,201.78 L6,109.32 A2.5,2.5 0 0 1 8.5,106.82" fill="none" style="stroke:#000000;stroke-width:1.5;"/><line style="stroke:#000000;stroke-width:1.5;" x1="6" x2="84.0001" y1="127.9528" y2="127.9528"/><text fill="#000000" font-family="Arial" font-size="13" font-weight="700" lengthAdjust="spacing" textLength="65.0001" x="10" y="120.8869">&#31649;&#29702;&#21592;&#19987;&#23646;</text></g><!--entity UC1--><g class="entity" data-qualified-name=".....UC1" data-source-line="11" id="ent0005"><ellipse cx="553.002" cy="164.5505" fill="#F1F1F1" rx="48.962" ry="13.7005" style="stroke:#181818;stroke-width:0.5;"/><text fill="#000000" font-family="Arial" font-size="13" lengthAdjust="spacing" textLength="65.0001" x="520.502" y="168.6169">&#26597;&#30475;&#24453;&#23457;&#25209;</text></g><!--entity UC2--><g class="entity" data-qualified-name=".....UC2" data-source-line="12" id="ent0006"><ellipse cx="674.9969" cy="164.5545" fill="#F1F1F1" rx="37.8169" ry="23.2645" style="stroke:#181818;stroke-width:0.5;"/><text fill="#000000" font-family="Arial" font-size="13" lengthAdjust="spacing" textLength="52.0001" x="648.9968" y="162.7096">&#23457;&#25209;&#36890;&#36807;</text><text fill="#000000" font-family="Arial" font-size="13" lengthAdjust="spacing" textLength="39" x="655.4969" y="177.8424">&#38656;&#30830;&#35748;</text></g><!--entity UC3--><g class="entity" data-qualified-name=".....UC3" data-source-line="13" id="ent0007"><ellipse cx="787.9996" cy="164.5505" fill="#F1F1F1" rx="39.7696" ry="13.7005" style="stroke:#181818;stroke-width:0.5;"/><text fill="#000000" font-family="Arial" font-size="13" lengthAdjust="spacing" textLength="52.0001" x="761.9996" y="168.6169">&#39539;&#22238;&#25253;&#38144;</text></g><!--entity UC4--><g class="entity" data-qualified-name=".....UC4" data-source-line="14" id="ent0008"><ellipse cx="920.0048" cy="164.547" fill="#F1F1F1" rx="57.3348" ry="13.867" style="stroke:#181818;stroke-width:0.5;"/><text fill="#000000" font-family="Arial" font-size="13" lengthAdjust="spacing" textLength="78.0001" x="881.0047" y="168.6134">&#26597;&#30475;&#21592;&#24037;&#21015;&#34920;</text></g><!--entity UC5--><g class="entity" data-qualified-name=".....UC5" data-source-line="18" id="ent0010"><ellipse cx="1092.0036" cy="164.5514" fill="#F1F1F1" rx="59.3536" ry="22.7714" style="stroke:#181818;stroke-width:0.5;"/><text fill="#000000" font-family="Arial" font-size="13" lengthAdjust="spacing" textLength="52.0001" x="1066.0036" y="158.6429">&#26597;&#30475;&#25253;&#38144;</text><text fill="#000000" font-family="Arial" font-size="13" lengthAdjust="spacing" textLength="86.2647" x="1048.8712" y="173.7757">&#21015;&#34920;&#183;&#35814;&#24773;&#183;&#36827;&#24230;</text></g><!--entity UC6--><g class="entity" data-qualified-name=".....UC6" data-source-line="19" id="ent0011"><ellipse cx="1249.0036" cy="164.5487" fill="#F1F1F1" rx="62.6236" ry="23.9187" style="stroke:#181818;stroke-width:0.5;"/><text fill="#000000" font-family="Arial" font-size="13" lengthAdjust="spacing" textLength="78.0001" x="1210.0036" y="160.3585">&#26597;&#30475;&#32452;&#32455;&#20449;&#24687;</text><text fill="#000000" font-family="Arial" font-size="13" lengthAdjust="spacing" textLength="86.2647" x="1205.8712" y="175.4913">&#37096;&#38376;&#183;&#39044;&#31639;&#183;&#30475;&#26495;</text></g><!--entity UC7--><g class="entity" data-qualified-name=".....UC7" data-source-line="20" id="ent0012"><ellipse cx="1419.0033" cy="164.5535" fill="#F1F1F1" rx="72.5033" ry="22.4535" style="stroke:#181818;stroke-width:0.5;"/><text fill="#000000" font-family="Arial" font-size="13" lengthAdjust="spacing" textLength="52.0001" x="1393.0032" y="158.1452">&#21512;&#35268;&#26597;&#35810;</text><text fill="#000000" font-family="Arial" font-size="13" lengthAdjust="spacing" textLength="108.1324" x="1364.937" y="173.2781">&#25919;&#31574;&#26816;&#32034;&#183;&#21512;&#35268;&#26816;&#26597;</text></g><!--entity UC8--><g class="entity" data-qualified-name=".....UC8" data-source-line="21" id="ent0013"><ellipse cx="1559.9962" cy="164.5505" fill="#F1F1F1" rx="33.3062" ry="13.7005" style="stroke:#181818;stroke-width:0.5;"/><text fill="#000000" font-family="Arial" font-size="13" lengthAdjust="spacing" textLength="42.8594" x="1538.5665" y="168.6169">AI &#23545;&#35805;</text></g><!--entity UC9--><g class="entity" data-qualified-name="......UC9" data-source-line="25" id="ent0015"><ellipse cx="60.0002" cy="164.5475" fill="#F1F1F1" rx="37.6502" ry="23.1675" style="stroke:#181818;stroke-width:0.5;"/><text fill="#000000" font-family="Arial" font-size="13" lengthAdjust="spacing" textLength="52.0001" x="34.0001" y="162.8489">&#31649;&#29702;&#37096;&#38376;</text><text fill="#000000" font-family="Arial" font-size="13" lengthAdjust="spacing" textLength="37.6353" x="41.1825" y="177.9818">CRUD</text></g><!--entity UC10--><g class="entity" data-qualified-name="......UC10" data-source-line="26" id="ent0016"><ellipse cx="170.0002" cy="164.5475" fill="#F1F1F1" rx="37.6502" ry="23.1675" style="stroke:#181818;stroke-width:0.5;"/><text fill="#000000" font-family="Arial" font-size="13" lengthAdjust="spacing" textLength="52.0001" x="144.0001" y="162.8489">&#31649;&#29702;&#21592;&#24037;</text><text fill="#000000" font-family="Arial" font-size="13" lengthAdjust="spacing" textLength="37.6353" x="151.1825" y="177.9818">CRUD</text></g><!--entity UC11--><g class="entity" data-qualified-name="......UC11" data-source-line="27" id="ent0017"><ellipse cx="280.0002" cy="164.5475" fill="#F1F1F1" rx="37.6502" ry="23.1675" style="stroke:#181818;stroke-width:0.5;"/><text fill="#000000" font-family="Arial" font-size="13" lengthAdjust="spacing" textLength="52.0001" x="254.0001" y="162.8489">&#31649;&#29702;&#39044;&#31639;</text><text fill="#000000" font-family="Arial" font-size="13" lengthAdjust="spacing" textLength="37.6353" x="261.1825" y="177.9818">CRUD</text></g><!--entity UC12--><g class="entity" data-qualified-name="......UC12" data-source-line="28" id="ent0018"><ellipse cx="399.9953" cy="164.5521" fill="#F1F1F1" rx="47.5253" ry="23.7321" style="stroke:#181818;stroke-width:0.5;"/><text fill="#000000" font-family="Arial" font-size="13" lengthAdjust="spacing" textLength="65.0001" x="367.4953" y="162.0139">&#31649;&#29702;&#30693;&#35782;&#24211;</text><text fill="#000000" font-family="Arial" font-size="13" lengthAdjust="spacing" textLength="56.1324" x="371.9291" y="177.1467">&#25991;&#26723;&#183;&#32034;&#24341;</text></g><!--entity App--><g class="entity" data-qualified-name="App" data-source-line="5" id="ent0001"><ellipse cx="920" cy="14" fill="#F1F1F1" rx="8" ry="8" style="stroke:#181818;stroke-width:0.5;"/><path d="M920,22 L920,49 M907,30 L933,30 M920,49 L907,64 M920,49 L933,64" fill="none" style="stroke:#181818;stroke-width:0.5;"/><text fill="#000000" font-family="Arial" font-size="13" lengthAdjust="spacing" textLength="39" x="900.5" y="77.5669">&#23457;&#25209;&#20154;</text></g><!--entity Adm--><g class="entity" data-qualified-name="Adm" data-source-line="6" id="ent0002"><ellipse cx="280" cy="14" fill="#F1F1F1" rx="8" ry="8" style="stroke:#181818;stroke-width:0.5;"/><path d="M280,22 L280,49 M267,30 L293,30 M280,49 L267,64 M280,49 L293,64" fill="none" style="stroke:#181818;stroke-width:0.5;"/><text fill="#000000" font-family="Arial" font-size="13" lengthAdjust="spacing" textLength="39" x="260.5" y="77.5669">&#31649;&#29702;&#21592;</text></g><!--link Adm to App--><g class="link" data-entity-1="ent0002" data-entity-2="ent0001" data-link-type="extension" data-source-line="8" id="lnk3"><path d="M300,43.07 C500.01,43.07 682.01,43.07 882.02,43.07" fill="none" id="Adm-to-App" style="stroke:#181818;stroke-width:1;"/><polygon fill="none" points="900.02,43.07,882.02,37.07,882.02,49.07,900.02,43.07" style="stroke:#181818;stroke-width:1;stroke-linejoin:miter;stroke-miterlimit:10;"/></g><!--link App to UC1--><g class="link" data-entity-1="ent0001" data-entity-2="ent0005" data-link-type="dependency" data-source-line="31" id="lnk19"><path d="M900.15,43.79 C850.18,43.9 716.28,49.14 620,98.63 C595.51,111.22 577.0684,131.7722 565.3784,146.8122" fill="none" id="App-to-UC1" style="stroke:#181818;stroke-width:1;"/><polygon fill="#181818" points="562.31,150.76,570.9914,146.1088,565.3784,146.8122,564.675,141.1993,562.31,150.76" style="stroke:#181818;stroke-width:1;stroke-linejoin:miter;stroke-miterlimit:10;"/></g><!--link App to UC2--><g class="link" data-entity-1="ent0001" data-entity-2="ent0006" data-link-type="dependency" data-source-line="32" id="lnk20"><path d="M900.26,46.02 C864.1,50.38 785.92,63.43 731,98.63 C713.46,109.88 701.2267,124.1504 691.1467,138.4804" fill="none" id="App-to-UC2" style="stroke:#181818;stroke-width:1;"/><polygon fill="#181818" points="688.27,142.57,696.7197,137.5101,691.1467,138.4804,690.1764,132.9074,688.27,142.57" style="stroke:#181818;stroke-width:1;stroke-linejoin:miter;stroke-miterlimit:10;"/></g><!--link App to UC3--><g class="link" data-entity-1="ent0001" data-entity-2="ent0007" data-link-type="dependency" data-source-line="33" id="lnk21"><path d="M900.3,56.64 C884.62,67.05 862.49,82.68 845,98.63 C826.83,115.21 811.651,133.2678 800.851,146.9278" fill="none" id="App-to-UC3" style="stroke:#181818;stroke-width:1;"/><polygon fill="#181818" points="797.75,150.85,806.4696,146.2708,800.851,146.9278,800.1941,141.3092,797.75,150.85" style="stroke:#181818;stroke-width:1;stroke-linejoin:miter;stroke-miterlimit:10;"/></g><!--link App to UC4--><g class="link" data-entity-1="ent0001" data-entity-2="ent0008" data-link-type="dependency" data-source-line="34" id="lnk22"><path d="M920,80.89 C920,104.48 920,128.68 920,145.31" fill="none" id="App-to-UC4" style="stroke:#181818;stroke-width:1;"/><polygon fill="#181818" points="920,150.31,924,141.31,920,145.31,916,141.31,920,150.31" style="stroke:#181818;stroke-width:1;stroke-linejoin:miter;stroke-miterlimit:10;"/></g><!--link App to UC5--><g class="link" data-entity-1="ent0001" data-entity-2="ent0010" data-link-type="dependency" data-source-line="35" id="lnk23"><path d="M939.73,57.77 C970.26,78.98 1024.9637,116.9772 1059.8837,141.2372" fill="none" id="App-to-UC5" style="stroke:#181818;stroke-width:1;"/><polygon fill="#181818" points="1063.99,144.09,1058.8809,135.67,1059.8837,141.2372,1054.3164,142.24,1063.99,144.09" style="stroke:#181818;stroke-width:1;stroke-linejoin:miter;stroke-miterlimit:10;"/></g><!--link App to UC6--><g class="link" data-entity-1="ent0001" data-entity-2="ent0011" data-link-type="dependency" data-source-line="36" id="lnk24"><path d="M939.73,45.3 C983.2,48.65 1089.65,60.43 1169,98.63 C1191.24,109.34 1209.1244,123.9269 1224.2244,138.2669" fill="none" id="App-to-UC6" style="stroke:#181818;stroke-width:1;"/><polygon fill="#181818" points="1227.85,141.71,1224.0784,132.6119,1224.2244,138.2669,1218.5694,138.4129,1227.85,141.71" style="stroke:#181818;stroke-width:1;stroke-linejoin:miter;stroke-miterlimit:10;"/></g><!--link App to UC7--><g class="link" data-entity-1="ent0001" data-entity-2="ent0012" data-link-type="dependency" data-source-line="37" id="lnk25"><path d="M939.56,45.41 C1010.87,50.49 1256.45,69.76 1329,98.63 C1354.6,108.82 1375.8992,124.6081 1393.0592,139.4581" fill="none" id="App-to-UC7" style="stroke:#181818;stroke-width:1;"/><polygon fill="#181818" points="1396.84,142.73,1392.652,133.8159,1393.0592,139.4581,1387.417,139.8653,1396.84,142.73" style="stroke:#181818;stroke-width:1;stroke-linejoin:miter;stroke-miterlimit:10;"/></g><!--link App to UC8--><g class="link" data-entity-1="ent0001" data-entity-2="ent0013" data-link-type="dependency" data-source-line="38" id="lnk26"><path d="M939.96,43.84 C1031.12,43.1 1407.76,43.5 1509,98.63 C1530.52,110.35 1543.7504,130.9402 1551.6904,146.2702" fill="none" id="App-to-UC8" style="stroke:#181818;stroke-width:1;"/><polygon fill="#181818" points="1553.99,150.71,1553.4027,140.8787,1551.6904,146.2702,1546.2989,144.558,1553.99,150.71" style="stroke:#181818;stroke-width:1;stroke-linejoin:miter;stroke-miterlimit:10;"/></g><!--link Adm to UC9--><g class="link" data-entity-1="ent0002" data-entity-2="ent0015" data-link-type="dependency" data-source-line="40" id="lnk27"><path d="M260.17,47.03 C227.54,52.66 161.52,67.24 115,98.63 C97.98,110.12 86.0967,124.1734 76.1667,138.3634" fill="none" id="Adm-to-UC9" style="stroke:#181818;stroke-width:1;"/><polygon fill="#181818" points="73.3,142.46,81.7374,137.3796,76.1667,138.3634,75.1829,132.7928,73.3,142.46" style="stroke:#181818;stroke-width:1;stroke-linejoin:miter;stroke-miterlimit:10;"/></g><!--link Adm to UC10--><g class="link" data-entity-1="ent0002" data-entity-2="ent0016" data-link-type="dependency" data-source-line="41" id="lnk28"><path d="M260.24,62.86 C249.58,73.2 236.32,86.38 225,98.63 C211.56,113.17 200.2978,126.4097 189.5878,139.4197" fill="none" id="Adm-to-UC10" style="stroke:#181818;stroke-width:1;"/><polygon fill="#181818" points="186.41,143.28,195.2183,138.8738,189.5878,139.4197,189.0419,133.7893,186.41,143.28" style="stroke:#181818;stroke-width:1;stroke-linejoin:miter;stroke-miterlimit:10;"/></g><!--link Adm to UC11--><g class="link" data-entity-1="ent0002" data-entity-2="ent0017" data-link-type="dependency" data-source-line="42" id="lnk29"><path d="M280,80.89 C280,100.5 280,119 280,135.92" fill="none" id="Adm-to-UC11" style="stroke:#181818;stroke-width:1;"/><polygon fill="#181818" points="280,140.92,284,131.92,280,135.92,276,131.92,280,140.92" style="stroke:#181818;stroke-width:1;stroke-linejoin:miter;stroke-miterlimit:10;"/></g><!--link Adm to UC12--><g class="link" data-entity-1="ent0002" data-entity-2="ent0018" data-link-type="dependency" data-source-line="43" id="lnk30"><path d="M299.87,63.75 C310.33,74.12 323.37,87.06 335,98.63 C349.81,113.37 362.9445,126.4945 375.6945,139.2445" fill="none" id="Adm-to-UC12" style="stroke:#181818;stroke-width:1;"/><polygon fill="#181818" points="379.23,142.78,375.6945,133.5876,375.6945,139.2445,370.0376,139.2445,379.23,142.78" style="stroke:#181818;stroke-width:1;stroke-linejoin:miter;stroke-miterlimit:10;"/></g><?plantuml-src RLBBJi905DtFLqnmJMB1vuQ4O4pSkD2uOpD2DKGeXCB6Hr8ZY8-DnWT6GLCG7ucsCPgWQ6p2jp2TzYySEeCEGXVjkJdddhddTjIrX991MPI2ooYsjffDvvLu99rCP-78hFS0zLSHbrTGFfcRJIkvUPIIOJYRGCdX_69YNOPI400Kor4l7pPqU_-Zqshv859XE9Ff4SJGoT4kFhvWH3m507r1_sR8Ku4CdGgjoZq79lV13G1XNfLZIAMKVTCWbKFyNMGQpsaf8eaInhZQfMELeefRqOXkECOjbmP4gVluYg-kxOE6UwfnFZZajECBt6pWlRAZFt3L6DWIvoq-uU8B5JjcRUYyx8IemZpQJSUyitUAz6jTuTOTznmVx2EV1V9PwbYwlMtIA3iFRfbskxK2CShjPjUuQl7kYRuL7EqvzmKsK5InJotoV6xNDV9MQpSvLzSepNidnTxm7CJcXsDMEJdL5_Nt7tRUJ_3BzR-qZ6LpHfN8mj8CDvaULB6jzgcaqI5cNjX-cJGe8zsikxXrGkEUbsozJjVpLiDVPxsUG3S6lMRGxmzvD-OF1mGS5F2OWCS5F27WIG5FyVli5TC2fhc4GXAB0FW1?></g></svg>