<svg xmlns="http://www.w3.org/2000/svg" xmlns:xlink="http://www.w3.org/1999/xlink" contentStyleType="text/css" data-diagram-type="DESCRIPTION" height="917px" preserveAspectRatio="none" style="width:632px;height:917px;background:#FFFFFF;" version="1.1" viewBox="0 0 632 917" width="632px" zoomAndPan="magnify"><?plantuml 1.2026.6?><defs/><g><!--cluster ???? ? ????--><g class="cluster" data-qualified-name=".... . ...." data-source-line="8" id="ent0002"><rect fill="none" height="334" rx="2.5" ry="2.5" style="stroke:#181818;stroke-width:1;" width="540.07" x="78" y="7"/><text fill="#000000" font-family="Arial" font-size="14" font-weight="700" lengthAdjust="spacing" textLength="135.7476" x="280.1612" y="21.9951">&#21592;&#24037;&#29992;&#20363; &#8212; &#25253;&#38144;&#31649;&#29702;</text></g><!--entity UC1--><g class="entity" data-qualified-name=".... . .....UC1" data-source-line="9" id="ent0003"><ellipse cx="146.4978" cy="290.0036" fill="#F1F1F1" rx="42.5978" ry="14.5236" style="stroke:#181818;stroke-width:0.5;"/><text fill="#000000" font-family="Arial" font-size="14" lengthAdjust="spacing" textLength="55.9998" x="118.4979" y="294.6521">&#30331;&#24405;&#27880;&#20876;</text></g><!--entity UC2--><g class="entity" data-qualified-name=".... . .....UC2" data-source-line="10" id="ent0004"><ellipse cx="146.4975" cy="214.9955" fill="#F1F1F1" rx="43.9475" ry="25.8055" style="stroke:#181818;stroke-width:0.5;"/><text fill="#000000" font-family="Arial" font-size="14" lengthAdjust="spacing" textLength="55.9998" x="118.4977" y="211.1519">&#19978;&#20256;&#31080;&#25454;</text><text fill="#000000" font-family="Arial" font-size="14" lengthAdjust="spacing" textLength="58.5223" x="117.2364" y="227.4488">OCR&#35782;&#21035;</text></g><!--entity UC3--><g class="entity" data-qualified-name=".... . .....UC3" data-source-line="11" id="ent0005"><ellipse cx="146.4973" cy="140.0036" fill="#F1F1F1" rx="52.4973" ry="14.5236" style="stroke:#181818;stroke-width:0.5;"/><text fill="#000000" font-family="Arial" font-size="14" lengthAdjust="spacing" textLength="69.9997" x="111.4974" y="144.6521">&#21019;&#24314;&#25253;&#38144;&#21333;</text></g><!--entity UC4--><g class="entity" data-qualified-name=".... . .....UC4" data-source-line="12" id="ent0006"><ellipse cx="146.4993" cy="66.0035" fill="#F1F1F1" rx="48.7093" ry="24.2835" style="stroke:#181818;stroke-width:0.5;"/><text fill="#000000" font-family="Arial" font-size="14" lengthAdjust="spacing" textLength="69.9997" x="111.4995" y="65.111">&#25552;&#20132;&#25253;&#38144;&#21333;</text><text fill="#000000" font-family="Arial" font-size="14" lengthAdjust="spacing" textLength="41.9998" x="125.4994" y="81.4079">&#38656;&#30830;&#35748;</text></g><!--entity UC5--><g class="entity" data-qualified-name=".... . .....UC5" data-source-line="13" id="ent0007"><ellipse cx="322.6773" cy="77.0036" fill="#F1F1F1" rx="52.4973" ry="14.5236" style="stroke:#181818;stroke-width:0.5;"/><text fill="#000000" font-family="Arial" font-size="14" lengthAdjust="spacing" textLength="69.9997" x="287.6774" y="81.6521">&#21462;&#28040;&#25253;&#38144;&#21333;</text></g><!--entity UC6--><g class="entity" data-qualified-name=".... . .....UC6" data-source-line="14" id="ent0008"><ellipse cx="322.6778" cy="141.0036" fill="#F1F1F1" rx="42.5978" ry="14.5236" style="stroke:#181818;stroke-width:0.5;"/><text fill="#000000" font-family="Arial" font-size="14" lengthAdjust="spacing" textLength="55.9998" x="294.6779" y="145.6521">&#26816;&#26597;&#39044;&#31639;</text></g><!--entity UC7--><g class="entity" data-qualified-name=".... . .....UC7" data-source-line="15" id="ent0009"><ellipse cx="322.6808" cy="216.0033" fill="#F1F1F1" rx="42.4708" ry="25.9733" style="stroke:#181818;stroke-width:0.5;"/><text fill="#000000" font-family="Arial" font-size="14" lengthAdjust="spacing" textLength="55.2753" x="295.0431" y="212.3986">&#29983;&#25104;PDF</text><text fill="#000000" font-family="Arial" font-size="14" lengthAdjust="spacing" textLength="55.9998" x="294.6809" y="228.6955">&#21457;&#36865;&#37038;&#20214;</text></g><!--entity UC8--><g class="entity" data-qualified-name=".... . .....UC8" data-source-line="16" id="ent0010"><ellipse cx="322.6782" cy="301.0023" fill="#F1F1F1" rx="63.6882" ry="24.2923" style="stroke:#181818;stroke-width:0.5;"/><text fill="#000000" font-family="Arial" font-size="14" lengthAdjust="spacing" textLength="55.9998" x="294.6783" y="294.9085">&#26597;&#30475;&#25253;&#38144;</text><text fill="#000000" font-family="Arial" font-size="14" lengthAdjust="spacing" textLength="92.9" x="276.2282" y="311.2054">&#21015;&#34920;&#183;&#35814;&#24773;&#183;&#36827;&#24230;</text></g><!--entity UC9--><g class="entity" data-qualified-name=".... . .....UC9" data-source-line="17" id="ent0011"><ellipse cx="524.2223" cy="67.0046" fill="#F1F1F1" rx="50.3223" ry="25.0346" style="stroke:#181818;stroke-width:0.5;"/><text fill="#000000" font-family="Arial" font-size="14" lengthAdjust="spacing" textLength="55.9998" x="496.2225" y="62.0378">&#31080;&#25454;&#27719;&#24635;</text><text fill="#000000" font-family="Arial" font-size="14" lengthAdjust="spacing" textLength="69.9997" x="489.2225" y="78.3347">&#26377;&#25928;&#26399;&#26657;&#39564;</text></g><!--entity UC10--><g class="entity" data-qualified-name=".... . .....UC10" data-source-line="18" id="ent0012"><ellipse cx="524.2197" cy="152.9978" fill="#F1F1F1" rx="67.2097" ry="25.5278" style="stroke:#181818;stroke-width:0.5;"/><text fill="#000000" font-family="Arial" font-size="14" lengthAdjust="spacing" textLength="83.9996" x="482.2199" y="148.7545">&#26597;&#30475;&#32452;&#32455;&#20449;&#24687;</text><text fill="#000000" font-family="Arial" font-size="14" lengthAdjust="spacing" textLength="92.9" x="477.7697" y="165.0514">&#37096;&#38376;&#183;&#39044;&#31639;&#183;&#30475;&#26495;</text></g><!--entity UC11--><g class="entity" data-qualified-name=".... . .....UC11" data-source-line="19" id="ent0013"><ellipse cx="524.2193" cy="237" fill="#F1F1F1" rx="77.8493" ry="23.95" style="stroke:#181818;stroke-width:0.5;"/><text fill="#000000" font-family="Arial" font-size="14" lengthAdjust="spacing" textLength="55.9998" x="496.2194" y="230.3679">&#21512;&#35268;&#26597;&#35810;</text><text fill="#000000" font-family="Arial" font-size="14" lengthAdjust="spacing" textLength="116.4497" x="465.9944" y="246.6648">&#25919;&#31574;&#26816;&#32034;&#183;&#21512;&#35268;&#26816;&#26597;</text></g><!--entity UC12--><g class="entity" data-qualified-name=".... . .....UC12" data-source-line="20" id="ent0014"><ellipse cx="524.2173" cy="310.0036" fill="#F1F1F1" rx="35.6373" ry="14.5236" style="stroke:#181818;stroke-width:0.5;"/><text fill="#000000" font-family="Arial" font-size="14" lengthAdjust="spacing" textLength="46.1561" x="501.1392" y="314.6521">AI &#23545;&#35805;</text></g><!--entity Emp--><g class="entity" data-qualified-name="Emp" data-source-line="6" id="ent0001"><ellipse cx="19.9999" cy="435.36" fill="#F1F1F1" rx="8" ry="8" style="stroke:#181818;stroke-width:0.5;"/><path d="M19.9999,443.36 L19.9999,470.36 M6.9999,451.36 L32.9999,451.36 M19.9999,470.36 L6.9999,485.36 M19.9999,470.36 L32.9999,485.36" fill="none" style="stroke:#181818;stroke-width:0.5;"/><text fill="#000000" font-family="Arial" font-size="14" lengthAdjust="spacing" textLength="27.9999" x="6" y="499.8551">&#21592;&#24037;</text></g><!--link Emp to UC1--><g class="link" data-entity-1="ent0001" data-entity-2="ent0003" data-link-type="dependency" data-source-line="23" id="lnk15"><path d="M27.7,426.36 C34.33,397.64 46.95,358.92 70,332 C82.19,317.76 95.9079,309.4439 111.4279,302.5739" fill="none" id="Emp-to-UC1" style="stroke:#181818;stroke-width:1;"/><polygon fill="#181818" points="116,300.55,106.1512,300.5353,111.4279,302.5739,109.3893,307.8506,116,300.55" style="stroke:#181818;stroke-width:1;stroke-linejoin:miter;stroke-miterlimit:10;"/></g><!--link Emp to UC2--><g class="link" data-entity-1="ent0001" data-entity-2="ent0004" data-link-type="dependency" data-source-line="24" id="lnk16"><path d="M21.19,426.44 C23.27,381.73 32.7,307.81 70,258 C79.76,244.96 90.2357,237.4611 104.2657,230.6211" fill="none" id="Emp-to-UC2" style="stroke:#181818;stroke-width:1;"/><polygon fill="#181818" points="108.76,228.43,98.9173,228.7785,104.2657,230.6211,102.4231,235.9695,108.76,228.43" style="stroke:#181818;stroke-width:1;stroke-linejoin:miter;stroke-miterlimit:10;"/></g><!--link Emp to UC3--><g class="link" data-entity-1="ent0001" data-entity-2="ent0005" data-link-type="dependency" data-source-line="25" id="lnk17"><path d="M22.91,426.51 C27.11,356.25 39.34,210.88 70,172 C78.64,161.05 87.0433,155.532 99.9033,150.752" fill="none" id="Emp-to-UC3" style="stroke:#181818;stroke-width:1;"/><polygon fill="#181818" points="104.59,149.01,94.7603,148.3963,99.9033,150.752,97.5475,155.895,104.59,149.01" style="stroke:#181818;stroke-width:1;stroke-linejoin:miter;stroke-miterlimit:10;"/></g><!--link Emp to UC4--><g class="link" data-entity-1="ent0001" data-entity-2="ent0006" data-link-type="dependency" data-source-line="26" id="lnk18"><path d="M22.01,426.51 C24.82,345.2 35,159.19 70,108 C78.64,95.38 87.876,88.3317 101.286,81.7917" fill="none" id="Emp-to-UC4" style="stroke:#181818;stroke-width:1;"/><polygon fill="#181818" points="105.78,79.6,95.9374,79.9499,101.286,81.7917,99.4441,87.1403,105.78,79.6" style="stroke:#181818;stroke-width:1;stroke-linejoin:miter;stroke-miterlimit:10;"/></g><!--link Emp to UC5--><g class="link" data-entity-1="ent0001" data-entity-2="ent0007" data-link-type="dependency" data-source-line="27" id="lnk19"><path d="M34.46,437.56 C43.03,422.16 55.28,403.41 70,390 C117.92,346.37 158.24,372.39 198.99,322 C260.85,245.54 196.64,185.06 258.99,109 C266.43,99.93 272.5862,95.2896 283.0162,90.3796" fill="none" id="Emp-to-UC5" style="stroke:#181818;stroke-width:1;"/><polygon fill="#181818" points="287.54,88.25,277.6935,88.4643,283.0162,90.3796,281.1009,95.7023,287.54,88.25" style="stroke:#181818;stroke-width:1;stroke-linejoin:miter;stroke-miterlimit:10;"/></g><!--link Emp to UC6--><g class="link" data-entity-1="ent0001" data-entity-2="ent0008" data-link-type="dependency" data-source-line="28" id="lnk20"><path d="M34.46,460.54 C71.86,447.87 175.86,410.9 198.99,384 C262.57,310.09 197.09,248.33 258.99,173 C267.14,163.09 274.5771,157.9521 285.9071,152.9421" fill="none" id="Emp-to-UC6" style="stroke:#181818;stroke-width:1;"/><polygon fill="#181818" points="290.48,150.92,280.6312,150.9014,285.9071,152.9421,283.8665,158.218,290.48,150.92" style="stroke:#181818;stroke-width:1;stroke-linejoin:miter;stroke-miterlimit:10;"/></g><!--link Emp to UC7--><g class="link" data-entity-1="ent0001" data-entity-2="ent0009" data-link-type="dependency" data-source-line="29" id="lnk21"><path d="M34.37,468.88 C66.6,477.34 149.55,493.77 198.99,455 C270.69,398.79 205.08,332.44 258.99,259 C266.88,248.26 274.0726,241.9701 285.0126,235.0601" fill="none" id="Emp-to-UC7" style="stroke:#181818;stroke-width:1;"/><polygon fill="#181818" points="289.24,232.39,279.4947,233.8143,285.0126,235.0601,283.7669,240.5781,289.24,232.39" style="stroke:#181818;stroke-width:1;stroke-linejoin:miter;stroke-miterlimit:10;"/></g><!--link Emp to UC8--><g class="link" data-entity-1="ent0001" data-entity-2="ent0010" data-link-type="dependency" data-source-line="30" id="lnk22"><path d="M34.33,490.81 C42.65,503.95 54.69,518.66 70,526 C121.7,550.79 149.7,555.27 198.99,526 C273.79,481.6 304.7936,378.6761 315.7936,330.1961" fill="none" id="Emp-to-UC8" style="stroke:#181818;stroke-width:1;"/><polygon fill="#181818" points="316.9,325.32,311.0077,333.2118,315.7936,330.1961,318.8094,334.982,316.9,325.32" style="stroke:#181818;stroke-width:1;stroke-linejoin:miter;stroke-miterlimit:10;"/></g><!--link Emp to UC9--><g class="link" data-entity-1="ent0001" data-entity-2="ent0011" data-link-type="dependency" data-source-line="31" id="lnk23"><path d="M31.99,503.63 C39.48,522.33 51.47,543.06 70,554 C119.36,583.17 146.7,577.5 198.99,554 C313.39,502.6 327.45,453.72 386.37,343 C436.61,248.61 381.12,194.72 446.37,110 C455.79,97.77 465.2719,90.744 478.7119,83.994" fill="none" id="Emp-to-UC9" style="stroke:#181818;stroke-width:1;"/><polygon fill="#181818" points="483.18,81.75,473.3421,82.2148,478.7119,83.994,476.9326,89.3638,483.18,81.75" style="stroke:#181818;stroke-width:1;stroke-linejoin:miter;stroke-miterlimit:10;"/></g><!--link Emp to UC10--><g class="link" data-entity-1="ent0001" data-entity-2="ent0012" data-link-type="dependency" data-source-line="32" id="lnk24"><path d="M24.71,503.6 C30.71,556.68 44.51,647.93 70,668 C180.48,754.99 280.86,760.95 386.37,668 C465.71,598.11 387.23,283.65 446.37,196 C453.55,185.36 459.9481,179.5318 471.1381,173.2018" fill="none" id="Emp-to-UC10" style="stroke:#181818;stroke-width:1;"/><polygon fill="#181818" points="475.49,170.74,465.687,171.6897,471.1381,173.2018,469.626,178.6528,475.49,170.74" style="stroke:#181818;stroke-width:1;stroke-linejoin:miter;stroke-miterlimit:10;"/></g><!--link Emp to UC11--><g class="link" data-entity-1="ent0001" data-entity-2="ent0013" data-link-type="dependency" data-source-line="33" id="lnk25"><path d="M22.04,503.57 C24.78,571.8 34.66,709.42 70,739 C177.82,829.26 280.72,831.79 386.37,739 C541.61,602.66 328.84,447.94 446.37,278 C452.91,268.55 458.0145,263.6081 468.0345,257.7981" fill="none" id="Emp-to-UC11" style="stroke:#181818;stroke-width:1;"/><polygon fill="#181818" points="472.36,255.29,462.5677,256.3442,468.0345,257.7981,466.5806,263.2649,472.36,255.29" style="stroke:#181818;stroke-width:1;stroke-linejoin:miter;stroke-miterlimit:10;"/></g><!--link Emp to UC12--><g class="link" data-entity-1="ent0001" data-entity-2="ent0014" data-link-type="dependency" data-source-line="34" id="lnk26"><path d="M20.44,503.44 C20.17,584.9 24.66,770.65 70,810 C176.19,902.17 274.59,895.3 386.37,810 C467.76,747.9 511.987,406.2759 520.957,329.8759" fill="none" id="Emp-to-UC12" style="stroke:#181818;stroke-width:1;"/><polygon fill="#181818" points="521.54,324.91,516.5178,333.3822,520.957,329.8759,524.4632,334.315,521.54,324.91" style="stroke:#181818;stroke-width:1;stroke-linejoin:miter;stroke-miterlimit:10;"/></g><!--link UC1 to UC2--><!--link UC2 to UC3--><!--link UC3 to UC4--><!--link UC4 to UC5--><!--link UC6 to UC5--><!--link UC7 to UC6--><!--link UC8 to UC7--><!--link UC8 to UC9--><!--link UC9 to UC10--><!--link UC10 to UC11--><!--link UC11 to UC12--><?plantuml-src RLFVRz9G57xlNt63B_hGPFpOW1UJ1INnHOt69_6XqeurWtOf9IOQayuXgviBB86X6Gi3noGQsnZDKAgIyAUOzjxsl_2sb74hRNBRq-_xUhvppkqjR_72DYCn9V2KoMyL9B4Yi1cnA4hWMjQxgFALWkKsc4fHpeg2V9SfSM1TufbYEF-GVyw1Q88gSXioa4KWyOLD6R2ynELbNXGeYidBs2DY7RspHeC8OChWTccReboU4Gf5RawXvj3ySm3-Aaq0zmTEKq5Q3pLg4V220g1Ivl9CcGFNqNl3-js2tuPMxUqDDzcZJ9JapH_xvgypD1Z2GoqdtCiyiFMQfNxsfJ5IQgadbZ6UULc7BLyI9oMmtZ37vrUIdE1q5DJJREtSLoS22Ul7y5BzF-5g8E471NO7Jh-AjBRFhmNQQtQXshX_AviJhFgHe-muhpJJkFIboK2gxW1r3cPkMAssxTvmEhBr2xZx6Zyd9zRumlyk5R3mPWE_xa75o0cmymQsLDZfmhEUysa-qlIo4JAgoDWp9psue-Cvx0wTDhQRTJ8TkPMSJkORiXAOIaErFrPn4bllOx_c17qvncD0t_lJaSzvGvb_7DZEzJl0qd_Q-kcSZL4lAGh_G82cRtfxluXZH1mduWGHhnBn6X4dYJX5n6dIQuLy8PrnLHI-0_hn9i-odF34EmIqLnDU8NWSu_4GF87nn09dnMS2xPMDrm9spnhjTO3NCfp4S78PJc4ujPmxZU5qI2cuNVSMnaHT9gnTF8X_?></g></svg>